<svg width="236" height="62" viewBox="0 0 236 62" fill="none" xmlns="http://www.w3.org/2000/svg">
<path d="M178.888 16.2176C179.304 16.1214 179.721 15.9612 180.137 15.9292C186.24 15.6409 192.328 15.2564 198.431 15.1443C201.795 15.0962 205.143 15.6729 208.331 16.8263C212.8 18.4282 215.732 21.4879 216.485 26.2616C217.078 30.0742 215.956 33.4863 213.089 36.1135C211.695 37.379 209.949 38.2601 208.283 39.1892C207.578 39.5737 207.338 39.7499 208.011 40.3746C213.569 45.5649 219.096 50.7872 224.655 55.9774C226.993 58.156 229.877 59.1653 232.937 59.806C233.818 59.9983 234.683 60.3026 235.74 60.607C234.971 61.472 234.202 61.8565 233.289 61.8725C226.593 62.0327 220.634 60.0623 215.652 55.5449C211.567 51.8444 207.61 47.9998 203.653 44.1552C202.116 42.6654 200.401 41.8484 198.239 41.8965C196.188 41.9445 194.138 41.8965 191.991 41.8965C191.975 42.1528 191.927 42.4411 191.927 42.7455C191.927 46.6702 191.927 50.611 191.927 54.5357C191.927 57.259 192.968 58.4284 195.692 58.8289C196.637 58.957 197.598 59.0371 198.543 59.1813C198.88 59.2293 199.2 59.4055 199.584 59.5497C198.944 60.5429 198.047 60.5589 197.214 60.5589C194.426 60.575 191.655 60.5269 188.868 60.5109C185.808 60.4949 182.764 60.4788 179.705 60.4308C179.336 60.4308 178.968 60.2866 178.599 60.2065C178.583 60.0944 178.567 59.9662 178.535 59.8541C179.032 59.6298 179.512 59.3415 180.025 59.2133C181.018 58.957 182.043 58.8128 183.037 58.6046C184.703 58.2361 185.504 57.0988 185.712 55.4968C185.808 54.6799 185.792 53.8629 185.792 53.0459C185.792 42.9698 185.792 32.8776 185.792 22.8015C185.792 18.6044 184.879 17.5952 180.682 17.1306C180.057 17.0666 179.448 16.7622 178.839 16.57C178.839 16.4578 178.856 16.3457 178.872 16.2176H178.888ZM191.991 40.2465C195.227 40.1183 198.287 40.1504 201.315 39.846C205.031 39.4776 207.594 37.315 208.812 33.8388C209.452 32.0126 209.725 29.9941 209.853 28.0398C210.237 22.0165 206.505 18.0437 200.85 16.9064C198.655 16.4739 196.349 16.4418 194.09 16.4739C191.799 16.5059 192.007 16.0894 191.991 18.6044C191.959 25.3005 191.991 31.9965 191.991 38.6766C191.991 39.1091 191.991 39.5416 191.991 40.2305V40.2465Z" fill="#1B281D"/>
<path d="M0.256309 16.1049C0.624752 16.0408 0.977177 15.9289 1.34562 15.9289C4.37327 15.9129 7.38489 15.9289 10.4125 15.9129C11.5339 15.9129 12.4149 16.2973 13.2319 17.1303C23.244 27.4628 33.3041 37.7632 43.3322 48.0796C44.2292 49.0087 45.0302 50.0339 46.0555 51.2194C46.1836 50.3864 46.3598 49.7456 46.3598 49.1048C46.3438 40.0059 46.3118 30.9229 46.2637 21.824C46.2637 19.357 45.1584 18.0755 42.7234 17.4988C42.0666 17.3386 41.3618 17.3065 40.705 17.1303C40.1443 16.9862 39.5997 16.7459 39.0871 16.3294C44.7739 15.9129 50.4127 15.9449 56.0675 16.1371C56.1156 16.2653 56.1636 16.3774 56.2117 16.5056C55.7952 16.7138 55.3787 17.0022 54.9301 17.0983C54.1292 17.2585 53.2962 17.2425 52.4792 17.4027C50.5569 17.7711 49.7399 18.6041 49.5637 20.5585C49.4355 21.9521 49.4035 23.3618 49.4035 24.7555C49.4035 36.1452 49.4035 47.5349 49.4035 58.9086C49.4035 59.6776 49.4035 60.4465 49.4035 61.5999C48.0418 60.5746 46.8084 59.8377 45.8152 58.8446C40.0482 53.0296 34.3454 47.1505 28.6425 41.2874C23.0037 35.4884 17.3809 29.6895 11.7582 23.8745C11.2776 23.3779 10.8451 22.8332 10.2043 22.0803C10.0761 22.7531 9.93196 23.1215 9.93196 23.506C9.8839 33.4219 9.85186 43.3379 9.83584 53.2538C9.83584 53.8626 9.91594 54.4873 10.0121 55.096C10.4125 57.5951 11.3737 58.5242 13.8727 58.8926C14.6897 59.0047 15.5067 59.0848 16.3237 59.229C16.6921 59.2931 17.0445 59.5013 17.3969 59.6295V60.062C16.8523 60.1421 16.3076 60.3183 15.763 60.3183C10.781 60.3183 5.79898 60.3183 0.816984 60.3023C0.576694 60.3023 0.320386 60.2222 0.0800964 60.1902C0.0480579 60.0941 0.0320386 59.9979 0 59.9018C0.416501 59.6776 0.833003 59.4052 1.28154 59.2611C2.06649 59.0208 2.88347 58.8606 3.66842 58.6523C5.60675 58.1557 6.43975 57.2106 6.648 55.2402C6.74412 54.3592 6.76014 53.4621 6.76014 52.581C6.76014 42.4568 6.79218 32.3487 6.76014 22.2245C6.76014 18.524 6.34364 18.1556 2.7393 17.3866C1.87426 17.1944 1.04125 16.8099 0.192231 16.5216C0.208251 16.3934 0.240289 16.2813 0.256309 16.1532V16.1049Z" fill="#1B281D"/>
<path d="M60.8734 38.3241C61.9467 28.5043 66.352 21.2636 75.2106 17.3549C83.6688 13.6224 92.3833 13.7025 100.697 17.8034C108.995 21.8884 113.529 28.7606 113.304 38.0999C113.16 44.2513 110.597 49.5857 106.176 53.991C102.059 58.0919 96.9808 60.4308 91.4542 61.7604C89.5319 62.2249 87.3532 61.9206 85.3348 61.6322C81.7305 61.1196 78.1902 60.2866 74.8262 58.8449C67.2811 55.609 62.7957 49.9221 61.2578 41.9125C61.0015 40.6149 60.9535 39.2693 60.8413 38.3081L60.8734 38.3241ZM106.544 38.5805C106.496 37.9397 106.48 36.8023 106.336 35.681C106.208 34.7038 105.968 33.7426 105.743 32.7655C103.453 22.465 94.626 16.2656 85.511 16.602C78.9271 16.8423 74.0893 19.7418 70.7893 25.3645C67.5854 30.8271 66.9287 36.6902 68.5306 42.6814C70.7573 50.9954 75.531 57.2109 84.3897 59.2614C92.3673 61.1036 99.608 58.0599 103.661 50.7711C105.663 47.1828 106.576 43.21 106.528 38.5805H106.544Z" fill="#1B281D"/>
<path d="M173.489 37.9551C172.432 47.823 167.722 55.1278 158.431 59.2608C155.323 60.6384 152.055 61.4073 148.707 61.7598C145.167 62.1282 141.739 61.2792 138.391 60.2219C133.248 58.5879 128.635 56.0409 125.463 51.5715C121.651 46.205 120.113 40.3099 121.795 33.726C123.252 28.0071 126.104 23.3135 130.958 19.8213C134.882 17.0019 139.304 15.5762 144.029 14.9995C150.485 14.2305 156.669 15.2878 162.275 18.5557C169.036 22.4965 172.752 28.5037 173.473 36.3051C173.521 36.8498 173.473 37.3944 173.473 37.9391L173.489 37.9551ZM128.026 36.8017C127.93 39.573 128.411 42.2323 129.276 44.8594C132.399 54.503 140.329 59.9336 149.524 59.6132C156.332 59.3729 161.266 56.105 164.166 50.1458C167.69 42.9211 167.578 35.4401 164.166 28.1673C160.577 20.5101 154.378 16.5694 145.856 16.5694C139.352 16.5694 134.386 19.5009 131.102 25.0756C128.987 28.6639 127.85 32.5886 128.026 36.8017Z" fill="#1B281D"/>
<path d="M99.3036 3.27397C97.8299 4.33124 96.4043 5.50065 94.8505 6.41375C93.0403 7.47102 91.0699 7.39093 89.0675 6.78219C86.8729 6.10938 84.6462 5.53269 82.4355 4.93997C80.4812 4.42736 78.5108 4.34726 76.5244 4.77978C76.3322 4.82784 76.1239 4.81182 75.8516 4.71571C77.005 3.35407 78.1584 1.99243 79.7763 1.12739C82.0991 -0.1061 84.534 -0.31435 87.0491 0.438556C88.5549 0.887096 90.0927 1.28758 91.5825 1.78418C94.0495 2.61718 96.5165 3.35407 99.1757 2.9696L99.3198 3.27397L99.3036 3.27397Z" fill="#1B281D"/>
</svg>
