<svg width="64" height="64" viewBox="0 0 64 64" fill="none" xmlns="http://www.w3.org/2000/svg">
<path d="M29.9197 0.740638C31.1307 -0.246879 32.8692 -0.246879 34.0802 0.740638L36.6913 2.8699C37.5131 3.53985 38.6072 3.77311 39.6305 3.49651L42.8746 2.61986C44.3811 2.21275 45.9662 2.91926 46.6706 4.31156L48.2034 7.34232C48.6807 8.28549 49.5815 8.94215 50.6256 9.10751L53.9595 9.6356C55.4956 9.87892 56.6519 11.1642 56.7316 12.7173L56.907 16.1365C56.961 17.1878 57.5149 18.1499 58.397 18.7247L61.2494 20.5837C62.5482 21.4303 63.0801 23.0687 62.5258 24.5167L61.2988 27.723C60.9232 28.7039 61.0387 29.805 61.6091 30.6868L63.4721 33.5652C64.3137 34.866 64.134 36.5776 63.0403 37.6754L60.6276 40.0972C59.8857 40.8419 59.5441 41.896 59.7087 42.9343L60.2455 46.3235C60.4881 47.8567 59.626 49.3511 58.1772 49.9092L55.0141 51.1269C54.0296 51.506 53.2864 52.3336 53.0155 53.3531L52.1397 56.6499C51.7397 58.1558 50.3386 59.1747 48.7827 59.0914L45.4225 58.9118C44.3649 58.8551 43.3449 59.3106 42.6814 60.1356L40.5623 62.771C39.5835 63.9882 37.8838 64.3499 36.4938 63.6365L33.5032 62.1013C32.5595 61.6172 31.4404 61.6172 30.4968 62.1013L27.506 63.6365C26.1163 64.3499 24.4165 63.9882 23.4377 62.771L21.3186 60.1356C20.6551 59.3106 19.635 58.8551 18.5776 58.9118L15.2173 59.0914C13.6614 59.1747 12.2602 58.1558 11.8603 56.6499L10.9843 53.3531C10.7135 52.3336 9.97042 51.506 8.98595 51.1269L5.82284 49.9092C4.37378 49.3511 3.51178 47.8567 3.75463 46.3235L4.29136 42.9343C4.45577 41.896 4.11425 40.8419 3.37232 40.0972L0.959589 37.6754C-0.134006 36.5776 -0.313732 34.866 0.528018 33.5652L2.39065 30.6868C2.96129 29.805 3.07665 28.7039 2.70123 27.723L1.47402 24.5167C0.919792 23.0687 1.45162 21.4303 2.7507 20.5837L5.60307 18.7247C6.48511 18.1499 7.03886 17.1878 7.09281 16.1365L7.26831 12.7173C7.34803 11.1642 8.50418 9.87892 10.0404 9.6356L13.3743 9.10751C14.4183 8.94215 15.3194 8.28549 15.7965 7.34232L17.3295 4.31156C18.0337 2.91926 19.619 2.21275 21.1255 2.61986L24.3694 3.49651C25.3929 3.77311 26.4869 3.53985 27.3085 2.8699L29.9197 0.740638Z" fill="#525A31"/>
<path d="M45.8839 23.1328L26.7936 41.8675L18.1162 33.3517" stroke="#FDFCFB" strokeWidth="3" stroke-linecap="round" stroke-linejoin="round"/>
</svg>
