<svg width="0" height="0" class="hidden">
  <symbol xmlns="http://www.w3.org/2000/svg" fill="none" viewBox="0 0 256 89" id="derma_icons">
    <mask id="a" maskUnits="userSpaceOnUse" x="0" y="0" width="256" height="89">
      <path fill="#C4C4C4" d="M0 0h256v89H0z"></path>
    </mask>
    <g mask="url(#a)">
      <circle cx="216.5" cy="44.5" r="34.3" fill="#FDFDFD"></circle>
      <circle cx="216.5" cy="44.5" r="34.3" fill="#FDFDFD"></circle>
      <path d="M255.2 46.5a3 3 0 0 0 0-4l-1.5-1.5a4.3 4.3 0 0 1-.7-4.6l1-2a3 3 0 0 0-1.3-3.8l-2-1a4.3 4.3 0 0 1-2-4l.3-2.2a3 3 0 0 0-2.4-3.3l-2.1-.3c-1.5-.3-3-1.8-3.3-3.3l-.3-2a3 3 0 0 0-3.3-2.5l-2.1.3c-1.6.3-3.4-.7-4.1-2l-1-2a3 3 0 0 0-3.9-1.2l-1.9 1c-1.4.6-3.4.3-4.6-.8l-1.5-1.5a3 3 0 0 0-4 0L213 7.3a4.3 4.3 0 0 1-4.6.7l-2-1a3 3 0 0 0-3.8 1.3l-1 2a4.3 4.3 0 0 1-4 2l-2.2-.3a3 3 0 0 0-3.3 2.4l-.3 2.1c-.3 1.5-1.8 3-3.3 3.3l-2 .3a3 3 0 0 0-2.5 3.3l.3 2.1c.3 1.6-.7 3.4-2 4.1l-2 1a3 3 0 0 0-1.2 3.9l1 1.9c.6 1.4.3 3.4-.8 4.6l-1.5 1.5a3 3 0 0 0 0 4l1.5 1.5a4.3 4.3 0 0 1 .7 4.6l-1 2a3 3 0 0 0 1.3 3.8l2 1c1.3.7 2.3 2.5 2 4l-.3 2.2a3 3 0 0 0 2.4 3.3l2.1.3c1.5.3 3 1.8 3.3 3.3l.3 2a3 3 0 0 0 3.3 2.5l2.1-.3c1.6-.3 3.4.7 4.1 2l1 2a3 3 0 0 0 3.9 1.2l1.9-1c1.4-.6 3.4-.3 4.6.8l1.5 1.5a3 3 0 0 0 4 0l1.5-1.5a4.3 4.3 0 0 1 4.6-.7l2 1a3 3 0 0 0 3.8-1.3l1-2a4.3 4.3 0 0 1 4-2l2.2.3a3 3 0 0 0 3.3-2.4l.3-2.1c.3-1.5 1.8-3 3.3-3.3l2-.3a3 3 0 0 0 2.5-3.3l-.3-2.1c-.3-1.6.7-3.4 2-4.1l2-1a3 3 0 0 0 1.2-3.9l-1-1.9c-.6-1.4-.3-3.4.8-4.6l1.5-1.5Zm-38.7 31.3a33.3 33.3 0 1 1 0-66.6 33.3 33.3 0 0 1 0 66.6Z" fill="#193F68"></path>
      <path d="m196 34.4.2.2V39c0 .3-.1.5-.3.6H195l-.1-.2v-2.9a17.5 17.5 0 0 0-1 1.3l-.2.2-.2.2a.6.6 0 0 1-.6 0l-.2-.2a27.3 27.3 0 0 1-1.1-1.5v2.8l-.1.1c-.1.2-.3.3-.6.3s-.5-.1-.6-.3V34.4c.1-.2.3-.2.6-.2h.4l.1.1 1.8 2.3 1.7-2.2c0-.2.3-.2.6-.2s.5 0 .6.2ZM200.2 34.6l2 4.1.2.4c0 .2-.2.4-.5.5a1 1 0 0 1-.4.1.4.4 0 0 1-.4-.2v-.2l-.5-.8h-2l-.4.8-.1.2-.2.2h-.2a1 1 0 0 1-.4-.1c-.3-.1-.5-.3-.5-.5l.2-.4 2-4.2s.1-.2.3-.2l.3-.1c.3 0 .5 0 .6.4Zm-.6 1.8-.5 1h1l-.5-1ZM203.7 34.2h1.4c.7 0 1.4.2 2 .7.5.6.7 1.2.7 2 0 .7-.2 1.4-.8 2-.5.5-1.2.8-2 .8h-1.3l-.6-.2V34.4c0-.2.3-.2.6-.2Zm2.4 3.7c.3-.2.4-.6.4-1s-.1-.7-.4-1c-.3-.3-.6-.4-1-.4h-.7v2.8h.7c.4 0 .7-.1 1-.4ZM210 38.3H212.6l.2.1.2.6c0 .4 0 .6-.3.6h-3.4c-.3 0-.5 0-.6-.2V34.8l.1-.5.6-.1H212.8l.2.6c0 .4 0 .6-.3.6H210v.8h1.8l.2.1.2.6c0 .4-.1.6-.3.6H210v.8ZM216.6 34.8v-.2l.1-.2c0-.2.3-.2.6-.2.4 0 .6 0 .6.2V39.5l-.6.2c-.4 0-.6-.1-.6-.3V34.8ZM222.6 34.4l.2-.2h.7l.2.1.1.2v5l-.6.2h-.4l-.2-.2-2.2-3v2.8l-.1.2-.6.2-.6-.2V34.4l.2-.2h.8l.1.1.2.2 2.1 2.8v-2.5l.1-.4ZM227.7 34.2h4.5l.1.2v.6l-.1.2H230.4v4.3l-.3.1h-.7l-.2-.1-.1-.2v-4.1h-1.8l-.2-.2v-.6l.2-.2h.4ZM236.4 34.4l.2-.2H237.5l.1.2V39.5l-.6.2c-.3 0-.5-.1-.6-.3v-1.9h-2v1.8l-.1.2-.6.2c-.3 0-.6-.1-.6-.3V34.4c0-.2.3-.2.6-.2.4 0 .6 0 .6.2v2h2v-1.8l.1-.2ZM239.8 38.3H242.4l.2.1.2.6c0 .4-.1.6-.3.6H239c-.3 0-.5 0-.6-.2V34.8l.1-.5.6-.1H242.6l.2.6c0 .4-.1.6-.3.6H239.8v.8h1.8l.2.1.2.6c0 .4-.1.6-.3.6h-1.9v.8ZM207.6 44l.5-.4h1.4l.3.2.2.3.1.8v4.5c0 1.4-.4 2.6-1.2 3.6a4.5 4.5 0 0 1-3.6 1.7 4.5 4.5 0 0 1-3.6-1.7c-.9-1-1.3-2.3-1.3-3.6v-5l.2-.4c0-.2.2-.3.4-.4h1.5c.2.1.4.2.4.4l.2.9v4.5c0 .6.2 1.2.5 1.7.1.3.3.5.6.7.3.2.7.3 1.1.3.7 0 1.3-.3 1.6-.8.4-.6.6-1.2.6-2v-4.5l.1-.8ZM212.7 53c-.3-.3-.4-.6-.4-.8 0-.3.2-.6.7-1 .2-.3.5-.4.7-.4.3 0 .7.2 1.2.7l.6.5c.3.2.5.2.7.2 1 0 1.4-.3 1.4-1 0-.3-.1-.5-.4-.7l-1-.3a7.9 7.9 0 0 1-2.4-.9c-.3-.2-.7-.5-1-1-.2-.4-.3-1-.3-1.6 0-1 .3-1.7 1-2.3.6-.7 1.5-1 2.7-1 .6 0 1.1 0 1.6.2l1 .5.4.3c.3.3.5.5.5.7 0 .2-.1.5-.4.8-.3.5-.7.8-1 .8a1.6 1.6 0 0 1-1-.5l-.2-.2-.8-.2c-.4 0-.6.1-.8.3-.3.1-.4.3-.4.6s.2.5.4.7c.3.2.6.3 1 .3a11 11 0 0 1 2.5.8c.3.1.7.5 1 .9.2.4.3 1 .3 1.6 0 .7-.1 1.3-.4 1.8a3 3 0 0 1-1 1.1 4.6 4.6 0 0 1-4 .6c-.4 0-.7-.2-1-.4-.5-.3-.9-.6-1-1h-.2ZM228.3 44.3l4 8.4.3.8c0 .3-.3.7-1 1a2 2 0 0 1-.7.2l-.5-.1a.9.9 0 0 1-.3-.3 9 9 0 0 1-.2-.5l-.8-1.6H225l-.8 1.6-.2.5-.3.3-.5.1a2 2 0 0 1-.8-.3c-.6-.2-.9-.6-.9-1l.3-.7 4-8.4.5-.5c.3-.2.5-.2.8-.2.5 0 .9.2 1.2.7ZM227 48l-1 2.1h2l-1-2ZM193 30.5h47.1a2 2 0 0 0 1.4-3 30.2 30.2 0 0 0-50 0 2 2 0 0 0 1.5 3Z" fill="#1E70BA"></path>
      <path d="m219.8 21-1.8-.3-.8-1.6c-.4-.8-1-.8-1.4 0l-.8 1.6-1.8.2c-.8.2-1 .7-.5 1.3l1.4 1.3-.3 1.8c-.2.8.3 1.2 1 .9l1.7-.9 1.7.9c.7.3 1.2 0 1-.9l-.3-1.8 1.4-1.3c.5-.6.3-1.1-.5-1.3ZM208.4 22.2 207 22l-.6-1.3c-.3-.6-.8-.6-1.2 0l-.6 1.3-1.4.2c-.7 0-.8.5-.4 1l1 1-.2 1.5c0 .6.3 1 .9.7l1.3-.7 1.4.7c.5.2 1 0 .8-.7l-.2-1.5 1-1c.5-.5.3-1-.4-1Z" fill="#fff"></path>
      <path d="m213.2 21 1.8-.3.8-1.6c.4-.8 1-.8 1.4 0l.8 1.6 1.8.2c.8.2 1 .7.5 1.3l-1.4 1.3.3 1.8c.2.8-.3 1.2-1 .9l-1.7-.9-1.7.9c-.7.3-1.2 0-1-.9l.3-1.8-1.4-1.3c-.5-.6-.3-1.1.5-1.3ZM224.6 22.2l1.4-.2.6-1.3c.3-.6.9-.6 1.2 0l.6 1.3 1.4.2c.7 0 .9.5.4 1l-1 1 .2 1.5c0 .6-.3 1-.8.7l-1.4-.7-1.4.7c-.5.2-1 0-.8-.7l.3-1.5-1.1-1c-.5-.5-.3-1 .4-1Z" fill="#fff"></path>
      <path d="M219.7 58.5c-.5 0-1 .3-1 .7V74c0 .4.5.7 1 .6l3.3-.4c.5-.1 1-.5 1-1V59.2c0-.4-.5-.7-1-.7h-3.3ZM229.4 58.5c-.5 0-1 .3-1 .7v12.3c0 .4.5.6 1 .4l3.4-1.7c.4-.3.8-.8.8-1.3v-9.7c0-.4-.4-.7-1-.7h-3.2ZM239 64.2c.5 0 1-.5 1-.5.4-.7 2-2.3 2.6-4.2v-.2c0-.5-.4-.8-1-.8h-2.5c-.5 0-1 .3-1 .6v4.4c0 .4.4.7 1 .7ZM213.3 58.5c.6 0 1 .3 1 .7V74c0 .4-.4.7-1 .6l-3.3-.4c-.5-.1-1-.5-1-1V59.2c0-.4.5-.7 1-.7h3.3ZM203.6 58.5c.5 0 1 .3 1 .7v12.3c0 .4-.4.6-.9.4l-3.4-1.7c-.5-.3-.8-.8-.8-1.3v-9.7c0-.4.4-.7 1-.7h3.1ZM194 64.2c-.5 0-1-.5-1-.5-.4-.7-2-2.3-2.5-4.2v-.2c0-.5.4-.8 1-.8h2.5c.5 0 .9.3 1 .6v4.4c0 .4-.5.7-1 .7Z" fill="#C94141"></path>
      <path d="m41.5 6.7 5.9 4.6c1 .8 2.3 1.2 3.6 1l7.5-.6c1.5-.1 2.8.8 3.3 2.2l2.5 7.1a5.2 5.2 0 0 0 2.5 2.9l6.6 3.5c1.3.7 2 2.2 1.7 3.6l-1.7 7.4c-.3 1.3-.1 2.6.5 3.8l3.7 6.6c.7 1.2.5 2.9-.6 3.9L71.6 58c-.9.9-1.4 2.1-1.5 3.4l-.5 7.6c0 1.5-1 2.7-2.5 3l-7.4 1.5c-1.3.2-2.4 1-3.1 2L52 81.7a3.2 3.2 0 0 1-3.7 1l-7-2.7a5.2 5.2 0 0 0-3.8 0l-7 2.8c-1.3.5-2.9 0-3.7-1.1l-4.5-6.2c-.7-1-1.8-1.8-3.1-2L11.9 72a3.2 3.2 0 0 1-2.5-3l-.5-7.6c0-1.3-.6-2.5-1.5-3.4L2 52.7c-1-1-1.3-2.7-.6-4l3.7-6.5c.6-1.2.8-2.5.5-3.8L4 31c-.3-1.4.4-2.9 1.7-3.6l6.6-3.5c1.2-.6 2-1.7 2.5-2.9l2.5-7.1a3.2 3.2 0 0 1 3.3-2.2l7.5.7c1.3 0 2.6-.3 3.6-1.1l6-4.6c1.1-1 2.7-1 3.9 0Z" fill="#fff" stroke="#7F9C37" stroke-width="2"></path>
      <circle cx="39" cy="45" r="23.5" stroke="#7F9C37"></circle>
      <path fill="#fff" d="M9 36h60v18H9z"></path>
      <path d="M15.4 51.2c-1.3 0-2.2-.4-2.8-1-.5-.7-.8-1.7-.8-3v-4.6c0-1.3.3-2.3.8-3 .6-.6 1.5-.9 2.8-.9 1.3 0 2.2.3 2.7 1 .6.7.9 1.6.9 3v4.5c0 1.3-.3 2.3-.9 3-.5.6-1.4 1-2.7 1Zm0-1.8c.4 0 .7-.1.8-.4.2-.3.2-.7.2-1.2V42c0-.5 0-.8-.2-1.1-.1-.3-.4-.4-.8-.4s-.7.1-.9.4l-.2 1.1v5.8c0 .5 0 .9.2 1.2.2.3.4.4.9.4Zm5.2-10.5h3.2a5 5 0 0 1 3 .7c.6.4 1 1.3 1 2.5 0 .8-.2 1.4-.4 1.9s-.6.8-1.2 1l1.7 6h-2.5L24 45.5h-1V51h-2.4V38.9Zm3.2 5.1c.6 0 1-.1 1.2-.4.3-.3.4-.7.4-1.3 0-.6-.1-1-.3-1.4-.2-.2-.6-.4-1.2-.4h-.8V44h.7Zm8.6 7.2c-1.2 0-2-.4-2.6-1.1-.5-.7-.7-1.8-.7-3.1v-4c0-1.5.3-2.5.8-3.2.5-.7 1.4-1.1 2.7-1.1 1.3 0 2.2.3 2.7 1 .5.5.8 1.4.8 2.6v.7h-2.4V42c0-.6 0-1-.2-1.2-.1-.3-.4-.4-.8-.4-.5 0-.8.1-.9.4l-.2 1.3v5.4c0 .6 0 1 .3 1.3.1.3.4.5.9.5.4 0 .7-.2.9-.5l.2-1.4v-1.2h-1.2v-1.5h3.5V51h-1.7l-.1-1c-.4.8-1 1.2-2 1.2Zm7.2-12.4h2.8L44.7 51h-2.3l-.4-2.7h-2l-.4 2.7h-2.3l2.3-12.1Zm2.1 8-.7-4.9-.7 4.9h1.4Zm4.2-8h1.8l2.7 6.4v-6.4h2V51h-1.7L48 44.3V51h-2V38.9Zm8.4 0h2.4V51h-2.4V38.9Zm7.6 12.4c-1.2 0-2.2-.4-2.7-1-.5-.8-.8-1.8-.8-3v-4.4c0-1.4.3-2.4.8-3 .5-.8 1.4-1.1 2.7-1.1 1.3 0 2.2.3 2.7 1 .5.5.7 1.4.7 2.5v1H63v-2c0-.2-.1-.4-.3-.5-.1-.2-.3-.2-.6-.2-.5 0-.8.1-1 .4l-.1 1.3v5.5c0 .6 0 1 .2 1.3.2.3.4.4.9.4.4 0 .6-.1.8-.4l.1-1.3v-1.2h2.4v1c0 1.2-.2 2-.7 2.7-.5.6-1.4 1-2.7 1ZM32 34h-1.6v-4.7l-1.4.4v-1.1l2.8-1h.1V34Zm6-2.6a3 3 0 0 1-.6 2 2 2 0 0 1-1.6.7 2 2 0 0 1-1.7-.7 3 3 0 0 1-.5-2v-1.2c0-.8.2-1.5.5-2a2 2 0 0 1 1.7-.7 2 2 0 0 1 1.6.7c.4.5.6 1.2.6 2v1.2ZM36.5 30l-.1-1a.6.6 0 0 0-.6-.3c-.3 0-.5 0-.6.3l-.2 1v1.6l.2 1c.1.2.3.3.6.3s.4 0 .6-.3l.1-1V30Zm6.5 1.4a3 3 0 0 1-.6 2 2 2 0 0 1-1.7.7 2 2 0 0 1-1.6-.7 3 3 0 0 1-.6-2v-1.2c0-.8.2-1.5.6-2a2 2 0 0 1 1.6-.7 2 2 0 0 1 1.7.7c.4.5.6 1.2.6 2v1.2ZM41.5 30c0-.4 0-.8-.2-1a.6.6 0 0 0-.6-.3c-.2 0-.4 0-.5.3l-.2 1v1.6c0 .4 0 .8.2 1 0 .2.3.3.5.3.3 0 .5 0 .6-.3l.2-1V30Zm2-1.2c0-.4.1-.7.4-1 .2-.2.6-.3 1-.3s.8.1 1 .4c.3.2.4.5.4 1v.3c0 .4-.1.7-.4 1-.2.2-.6.3-1 .3s-.8-.1-1-.4c-.3-.2-.4-.5-.4-1v-.3Zm1 .4v.3l.4.2c.3 0 .5-.2.5-.6v-.3c0-.1 0-.2-.2-.3l-.3-.2c-.2 0-.3 0-.4.2v.7Zm2 3.2c0-.4.1-.7.4-1 .3-.2.6-.3 1-.3.5 0 .8.1 1 .4.3.2.5.5.5 1v.3c0 .4-.2.7-.4 1-.3.2-.6.3-1 .3-.5 0-.8-.1-1.1-.4-.3-.2-.4-.5-.4-1v-.3Zm1 .4.1.3.3.2c.3 0 .5-.1.5-.4v-.5l-.1-.3-.4-.2-.3.1-.1.4v.4Zm-2.3.7-.7-.3 3.1-5 .7.3-3.1 5ZM32 62h-1.6v-4.7l-1.4.4v-1.1l2.8-1h.1V62Zm6-2.6a3 3 0 0 1-.6 2 2 2 0 0 1-1.6.7 2 2 0 0 1-1.7-.7 3 3 0 0 1-.5-2v-1.2c0-.8.2-1.5.5-2a2 2 0 0 1 1.7-.7 2 2 0 0 1 1.6.7c.4.5.6 1.2.6 2v1.2ZM36.5 58l-.1-1a.6.6 0 0 0-.6-.3c-.3 0-.5 0-.6.3l-.2 1v1.6l.2 1c.1.2.3.3.6.3s.4 0 .6-.3l.1-1V58Zm6.5 1.4a3 3 0 0 1-.6 2 2 2 0 0 1-1.7.7 2 2 0 0 1-1.6-.7 3 3 0 0 1-.6-2v-1.2c0-.8.2-1.5.6-2a2 2 0 0 1 1.6-.7 2 2 0 0 1 1.7.7c.4.5.6 1.2.6 2v1.2ZM41.5 58c0-.4 0-.8-.2-1a.6.6 0 0 0-.6-.3c-.2 0-.4 0-.5.3l-.2 1v1.6c0 .4 0 .8.2 1 0 .2.3.3.5.3.3 0 .5 0 .6-.3l.2-1V58Zm2-1.2c0-.4.1-.7.4-1 .2-.2.6-.3 1-.3s.8.1 1 .4c.3.2.4.5.4 1v.3c0 .4-.1.7-.4 1-.2.2-.6.3-1 .3s-.8-.1-1-.4c-.3-.2-.4-.5-.4-1v-.3Zm1 .4v.3l.4.2c.3 0 .5-.2.5-.6v-.3c0-.1 0-.2-.2-.3l-.3-.2c-.2 0-.3 0-.4.2v.7Zm2 3.2c0-.4.1-.7.4-1 .3-.2.6-.3 1-.3.5 0 .8.1 1 .4.3.2.5.5.5 1v.3c0 .4-.2.7-.4 1-.3.2-.6.3-1 .3-.5 0-.8-.1-1.1-.4-.3-.2-.4-.5-.4-1v-.3Zm1 .4.1.3.3.2c.3 0 .5-.1.5-.4v-.5l-.1-.3-.4-.2-.3.1-.1.4v.4Zm-2.3.7-.7-.3 3.1-5 .7.3-3.1 5ZM24.2 21.8c.4.6.5 1 .4 1.6-.1.5-.4 1-1 1.3-.3.3-.7.5-1.1.5-.4 0-.8 0-1.2-.2-.4-.2-.7-.5-1-1l-.4-.4c-.3-.4-.5-.8-.6-1.3a2.2 2.2 0 0 1 .8-2.2c.5-.4 1-.6 1.5-.5.6 0 1 .2 1.5.7l-.8.6c-.3-.3-.6-.5-.8-.5-.3 0-.6 0-.9.3-.3.3-.5.6-.5 1s.2.8.6 1.3l.3.4c.4.5.7.8 1.1 1 .4 0 .7 0 1-.3.4-.2.6-.5.6-.7 0-.3 0-.6-.2-1l.7-.6ZM27.4 19.4l-2 1 .8 1.6 2.4-1.2.3.7-3.3 1.7-2.6-5 3.3-1.8.4.8-2.4 1.2.7 1.4 2-1 .4.6ZM31 18.5l-1 .3.7 2-1 .4-1.6-5.5 1.9-.6c.6-.2 1.1-.2 1.6 0 .4.2.7.6.8 1 .2.5.2.8 0 1 0 .4-.2.6-.5.9l1.9 1.9-1 .3-1.7-1.7Zm-1.2-.5 1-.3c.3 0 .5-.2.6-.4.2-.3.2-.5.1-.8a1 1 0 0 0-.4-.6h-.9l-1 .3.6 1.8ZM37.6 14.6l-1.8.2.6 4.8-1 .1L35 15 33 15v-.8l4.4-.5.1.8ZM39.7 19.5h-1l.2-5.7h1l-.2 5.7ZM45 17.7l-2.3-.4-.4 2.4-1-.2 1-5.6 3.6.6-.2.8-2.6-.4-.2 1.6 2.2.4-.1.8ZM47 20.8l-1-.3 1.7-5.5 1 .3-1.8 5.5ZM52.7 20.5l-2.1-1-.8 1.5 2.4 1.2-.3.7-3.3-1.6 2.5-5.1 3.3 1.6-.4.7-2.4-1.2-.7 1.4 2.1 1-.3.8ZM52.5 23.3l3.4-4.6 1.4 1c.4.3.7.7.8 1 .2.5.3 1 .2 1.4 0 .4-.3.9-.6 1.3l-.1.2a3 3 0 0 1-1.1 1c-.5.2-.9.3-1.3.2-.5 0-1-.2-1.3-.5l-1.4-1Zm3.7-3.3-2.4 3.3.5.3c.4.3.9.4 1.3.4.4-.1.8-.4 1.1-1l.2-.2c.4-.5.6-1 .5-1.4 0-.4-.2-.7-.6-1l-.6-.4ZM23.5 70a2 2 0 0 1-1.4.7c-.6 0-1-.2-1.6-.6-.3-.3-.6-.6-.7-1-.2-.4-.2-.8-.1-1.2 0-.4.3-.8.6-1.3l.3-.4 1.1-1a2.2 2.2 0 0 1 2.4.3c.5.4.8.8.9 1.3 0 .5 0 1-.4 1.6l-.7-.6c.2-.4.3-.7.2-1 0-.2-.2-.4-.5-.7-.3-.2-.7-.3-1-.2-.4.1-.8.4-1.2.9l-.3.4c-.4.5-.6 1-.6 1.3 0 .4.2.7.5 1l.9.3c.2 0 .5-.2.8-.5l.8.6ZM27.5 71.3l-2.1-1.1-.8 1.6L27 73l-.3.7-3.3-1.7 2.6-5 3.2 1.6-.3.7-2.4-1.2-.7 1.4 2 1-.3.8ZM30.9 72.9l-1-.3-.7 2-1-.2 1.7-5.5 2 .6c.6.2 1 .5 1.3.9.2.4.3.8 0 1.4 0 .3-.2.6-.4.8-.3.2-.6.3-1 .3l.6 2.7-1-.3-.5-2.4Zm-.8-1.1 1 .3h.8c.2-.1.4-.3.4-.6v-.7c-.1-.3-.3-.4-.7-.5l-1-.3-.5 1.8ZM38.2 71.4l-1.8-.2-.6 4.9-1-.1.6-4.9-1.7-.2v-.8l4.5.5v.8ZM39.9 76.2h-1l-.2-5.6h1l.2 5.6ZM45 73.2l-2.2.4.4 2.4-1 .1-1-5.6 3.6-.6.1.8-2.6.5.3 1.6 2.3-.4.1.8ZM48.5 74.7l-1 .4-1.7-5.5 1-.3 1.7 5.4ZM52.6 70.2l-2 1 .7 1.6 2.5-1.2.3.7-3.3 1.7-2.5-5.1 3.3-1.7.3.7-2.4 1.2.7 1.4 2-1 .4.7ZM55.5 71.5l-3.4-4.6 1.4-1c.4-.3.8-.5 1.3-.5.4 0 .8 0 1.3.2.4.2.7.5 1 1l.2.2c.3.4.5.9.6 1.3 0 .5 0 1-.2 1.3-.2.4-.5.8-.9 1.1l-1.3 1ZM53.4 67l2.4 3.2.6-.3c.4-.3.6-.7.6-1.1 0-.5-.1-1-.5-1.4l-.1-.3c-.4-.5-.8-.8-1.2-.9-.4 0-.8 0-1.2.3l-.6.5ZM6 36h67v1H6zM3 53h73v1H3z" fill="#7F9C37"></path>
      <path d="M127 5.8a2 2 0 0 1 3 0l.4.3c.7.9 2 1 3 .3l.3-.3a2 2 0 0 1 3.1.5l.2.4a2 2 0 0 0 2.9.8l.4-.3a2 2 0 0 1 3 1.1l.1.5a2 2 0 0 0 2.7 1.2l.4-.2a2 2 0 0 1 2.8 1.6v.5a2 2 0 0 0 2.4 1.7l.5-.1a2 2 0 0 1 2.4 2v.5a2 2 0 0 0 2.1 2h.5a2 2 0 0 1 2 2.5v.5a2 2 0 0 0 1.6 2.4h.5a2 2 0 0 1 1.6 2.8l-.2.4a2 2 0 0 0 1.2 2.7l.5.2a2 2 0 0 1 1 3l-.2.3a2 2 0 0 0 .8 2.9l.4.2a2 2 0 0 1 .5 3.1l-.3.4a2 2 0 0 0 .3 3l.3.2a2 2 0 0 1 0 3.2l-.3.3c-.9.7-1 2-.3 3l.3.3a2 2 0 0 1-.5 3.1l-.4.2a2 2 0 0 0-.8 2.9l.3.4a2 2 0 0 1-1.1 3l-.5.1a2 2 0 0 0-1.2 2.7l.2.4a2 2 0 0 1-1.6 2.8h-.5a2 2 0 0 0-1.7 2.4l.1.5a2 2 0 0 1-2 2.4h-.5a2 2 0 0 0-2 2.1v.5a2 2 0 0 1-2.5 2h-.5a2 2 0 0 0-2.4 1.6v.5a2 2 0 0 1-2.8 1.6l-.4-.2a2 2 0 0 0-2.7 1.2l-.2.5a2 2 0 0 1-3 1l-.3-.2a2 2 0 0 0-2.9.8l-.2.4a2 2 0 0 1-3.1.5l-.4-.3a2 2 0 0 0-3 .3l-.2.3a2 2 0 0 1-3.2 0l-.3-.3a2 2 0 0 0-3-.3l-.3.3a2 2 0 0 1-3.1-.5l-.2-.4a2 2 0 0 0-2.9-.8l-.4.3a2 2 0 0 1-3-1.1l-.1-.5a2 2 0 0 0-2.7-1.2l-.4.2a2 2 0 0 1-2.8-1.6v-.5a2 2 0 0 0-2.4-1.7l-.5.1a2 2 0 0 1-2.4-2v-.5a2 2 0 0 0-2.1-2h-.5a2 2 0 0 1-2-2.5v-.5a2 2 0 0 0-1.6-2.4h-.5a2 2 0 0 1-1.6-2.8l.2-.4a2 2 0 0 0-1.2-2.7l-.5-.2a2 2 0 0 1-1-3l.2-.3A2 2 0 0 0 91 53l-.4-.2a2 2 0 0 1-.5-3.1l.3-.4a2 2 0 0 0-.3-3l-.3-.2a2 2 0 0 1 0-3.2l.3-.3c.9-.7 1-2 .3-3l-.3-.3a2 2 0 0 1 .5-3.1l.4-.2a2 2 0 0 0 .8-2.9l-.3-.4a2 2 0 0 1 1.1-3l.5-.1a2 2 0 0 0 1.2-2.7l-.2-.4a2 2 0 0 1 1.6-2.8h.5a2 2 0 0 0 1.7-2.4l-.1-.5a2 2 0 0 1 2-2.4h.5a2 2 0 0 0 2-2.1v-.5a2 2 0 0 1 2.5-2h.5a2 2 0 0 0 2.4-1.6v-.5a2 2 0 0 1 2.8-1.6l.4.2a2 2 0 0 0 2.7-1.2l.2-.5a2 2 0 0 1 3-1l.3.2A2 2 0 0 0 120 7l.2-.4a2 2 0 0 1 3.1-.5l.4.3a2 2 0 0 0 3-.3l.2-.3Z" fill="#5181C5"></path>
      <circle cx="128" cy="45" r="33.5" stroke="#fff"></circle>
      <circle cx="128" cy="45" r="21.5" stroke="#fff"></circle>
      <path d="m108.5 27.4-.7.7 1.1 1.5-.5.5-1-1.4-.8.8-.5-.5.8-.9-.9-1-.7.7-.5-.4.8-1-1.2-1.4.5-.5 1.2 1.4.6-.7-1.1-1.5.4-.5 1.2 1.4.6-.7.5.5-.7.8.9 1 .6-.6.6.4-.8.8 1.2 1.5-.5.5-1.1-1.4Zm-1.1.2.6-.8-.9-1-.6.7.9 1ZM113.3 25.4l-.8.6-3.2-4-.9 1.3-.5-.7 1.4-2.2.1-.1 4 5ZM117.3 22.8l-2.2-6 1.8-.6a3 3 0 0 1 1.5-.2c.5 0 1 .3 1.4.6.4.4.7.9.9 1.4v.3c.3.6.3 1.1.3 1.6 0 .6-.3 1-.6 1.4a3 3 0 0 1-1.3.9l-1.8.6Zm-.8-5.5 1.6 4.3.7-.3c.5-.2.9-.5 1-1 .2-.4.2-1 0-1.6l-.2-.3c-.2-.7-.6-1.1-1-1.3-.4-.3-.8-.3-1.4-.1l-.7.3ZM127.3 17.3a4 4 0 0 1 0 1.7c-.2.5-.5.9-.9 1.2a2.6 2.6 0 0 1-2.8.4l-1-1c-.3-.4-.5-1-.5-1.5v-.4c-.2-.6-.1-1.2 0-1.7.2-.5.4-.9.8-1.2.4-.3.8-.5 1.3-.6.5 0 1 0 1.4.2.5.2.8.5 1.1 1 .3.4.5 1 .6 1.6v.3Zm-1.1-.2c-.1-.7-.3-1.2-.6-1.5-.4-.4-.8-.5-1.3-.4-.4 0-.8.3-1 .7-.2.4-.3 1-.2 1.6v.4c.2.7.4 1.2.7 1.5.3.4.7.5 1.2.4.5 0 .8-.3 1-.7.3-.4.3-1 .2-1.6V17ZM132.7 18.7c-.1.7-.4 1.2-.9 1.5-.5.4-1 .5-1.8.5-.5 0-1-.2-1.3-.5-.4-.3-.6-.6-.8-1.1-.2-.5-.2-1-.2-1.6V17c0-.6.2-1 .5-1.5a2.4 2.4 0 0 1 2.4-1.3c.7 0 1.3.3 1.7.7.4.5.6 1 .6 1.7h-1.1c0-.5-.1-.9-.3-1.1-.2-.2-.6-.3-1-.4-.4 0-.8.1-1.1.5-.3.3-.5.8-.5 1.5v.5c-.1.7 0 1.3.2 1.6.2.4.5.6 1 .7.4 0 .8 0 1-.2.2-.2.4-.5.5-1l1.1.1ZM138.2 16.7l-1.9-.5-1.5 5.3-1-.3 1.5-5.3-2-.6.3-.8 4.9 1.4-.3.8ZM143.3 21.9a4 4 0 0 1-1 1.3l-1.4.6c-.5 0-1-.1-1.4-.3-.5-.3-.8-.6-1-1-.3-.4-.4-.9-.4-1.4 0-.5.2-1 .4-1.6l.2-.3c.3-.6.6-1 1-1.3.5-.4 1-.5 1.4-.6.5 0 1 0 1.4.3.5.2.8.6 1 1 .3.4.4.8.4 1.4 0 .5-.2 1-.5 1.6l-.1.3Zm-.9-.8c.4-.6.5-1.2.4-1.6 0-.5-.3-.8-.7-1-.4-.3-.9-.3-1.3 0-.4.1-.8.5-1 1.1l-.2.4c-.4.6-.5 1.1-.4 1.6 0 .5.3.8.7 1 .5.3.9.3 1.3 0 .4-.1.8-.6 1.1-1.2l.1-.3ZM145.3 24.3l-1-.8-1.5 2-.9-.8 4-5 1.8 1.5c.6.5 1 1 1 1.5.1.5 0 1-.4 1.5a2 2 0 0 1-2 .6l-.6 3-1-.8.6-2.7Zm-.4-1.5.9.8.9.3c.2 0 .5-.1.7-.4.2-.3.3-.5.3-.8 0-.3-.2-.5-.5-.8l-1-.7-1.3 1.6ZM99.8 46.8l-.1-1h-2.2v-1l5.6-.3.1 2c0 .7 0 1.2-.3 1.6-.3.4-.7.6-1.3.6-.3 0-.7 0-1-.2l-.6-.8-2.3 1.4v-1l2-1.3Zm.7-1.1v1c0 .3.2.6.3.8l.7.2c.4 0 .6-.1.7-.3.2-.2.3-.4.3-.8l-.1-1h-2ZM101.2 53.2l-.5-2.3-1.7.4.6 2.7-.8.2-.8-3.6 5.5-1.4.9 3.6-.8.2-.6-2.6-1.6.3.6 2.3-.8.2ZM102.6 58.3a2 2 0 0 1-1.6 0c-.5-.3-.9-.7-1.1-1.3-.2-.4-.3-.8-.2-1.2 0-.4.2-.8.5-1.1l1.1-.8.5-.2c.5-.3 1-.4 1.4-.4a2.2 2.2 0 0 1 2 1.4c.3.6.3 1 .2 1.6-.2.5-.5.9-1 1.2l-.5-1c.4-.1.6-.4.7-.6V55c-.3-.4-.5-.6-1-.7-.3 0-.8 0-1.3.2l-.5.2c-.5.3-1 .6-1.1 1-.2.3-.3.6 0 1 0 .4.3.6.5.7h1l.4.9ZM106.6 62.9c-.4.3-.9.5-1.4.6-.4.1-.8 0-1.2-.1-.4-.2-.7-.4-1-.8-.3-.4-.4-.8-.5-1.2 0-.4.1-.9.4-1.3.2-.4.5-.7 1-1l.2-.2 1.4-.6h1.3l1 .9c.2.4.4.8.4 1.2 0 .4 0 .8-.3 1.2-.2.4-.6.8-1 1.1l-.3.2Zm-.3-1c.5-.3.8-.7 1-1.1.1-.4 0-.8-.2-1.1-.3-.4-.6-.5-1-.6-.4 0-.9.2-1.4.6l-.2.2c-.6.3-.9.7-1 1-.2.5-.1.9.2 1.2.2.4.5.5 1 .5.3 0 .8-.1 1.3-.5l.3-.2ZM110 62.2l-1.7 4.3 4.1-2.2 1 .9-3.8 4.3-.7-.7 1.2-1.4 1.8-1.8-4.2 2.2-.5-.5 1.6-4.4-1.6 2-1.2 1.3-.7-.6 3.7-4.3 1 .9ZM114.8 66.1l-.6 4.6 3.5-3.1 1.1.6-2.6 5-.9-.4.9-1.7 1.2-2.2-3.5 3.2-.6-.4.5-4.6-1 2.3-.9 1.6-.9-.4 2.6-5 1.2.5ZM122 72.4l-2.2-.6-.4 1.7 2.6.7-.2.8-3.6-1 1.5-5.5 3.6 1-.3.7-2.6-.7-.4 1.6 2.3.6-.2.7ZM128 75.6h-1l-2.3-4.3-.2 4h-1l.3-5.7h1l2.3 4.3.3-4h1l-.4 5.7ZM129.8 75.5l-.8-5.7 1.7-.2c.5 0 1 0 1.3.2.5.1.8.4 1 .8.3.4.5.8.6 1.3v.3l-.1 1.5c-.2.4-.4.8-.8 1-.4.3-.8.5-1.3.5l-1.6.3Zm.3-5 .5 4h.7c.5-.1.9-.3 1.1-.7.2-.3.3-.8.2-1.4V72c0-.6-.3-1.1-.6-1.4-.3-.3-.7-.4-1.2-.3h-.7ZM137.7 71.1l-2.2.7.5 1.7 2.6-.8.3.7-3.6 1.2-1.7-5.4L137 68l.2.8-2.5.8.4 1.5 2.3-.7.2.7ZM140.2 72.8l-2.7-5 1.5-.8c.4-.3.9-.4 1.3-.4.5 0 .9.2 1.3.5.4.2.7.6 1 1v.3c.3.5.5 1 .5 1.4 0 .5-.2.9-.4 1.3l-1 1-1.5.7Zm-1.4-4.8 2 3.6.5-.3c.4-.2.7-.6.8-1 0-.4 0-.9-.3-1.4l-.1-.3c-.3-.5-.7-.9-1-1-.5-.2-.9-.2-1.3 0l-.6.4ZM146.8 69.2l-3.9-4.2 1.4-1.3c.5-.5 1-.7 1.4-.7.4 0 .8.1 1.1.5l.4.6c0 .3 0 .6-.2.8.3-.1.6-.2.9-.1.3 0 .5.2.7.4.4.4.5.8.5 1.3 0 .4-.3.9-.8 1.3l-1.5 1.4Zm-1-2.6 1.1 1.3.9-.7c.2-.2.3-.4.3-.7 0-.2 0-.4-.2-.6-.4-.4-.8-.5-1.3 0l-.9.7Zm-.5-.5.7-.7.4-.6c0-.2 0-.4-.2-.6l-.6-.3c-.2 0-.5.1-.7.4l-.7.6 1 1.2ZM150.6 62l-.6 1 1.7 1.2-.6.8-4.5-3.4 1.2-1.6c.4-.5.8-.8 1.3-1 .4 0 .9 0 1.3.4.3.2.5.5.6.8v1l2.7.4-.6.9-2.5-.5Zm-1.3.4.6-.8c.2-.2.3-.5.3-.7 0-.3-.1-.5-.4-.7-.2-.2-.5-.2-.7-.2l-.7.4-.6.9 1.5 1.1ZM154.7 56.8l-1 2 1 1-.4.9-4.2-4.5.4-.8 6 .6-.4 1-1.4-.2Zm-1.5 1.3.7-1.4-2.5-.3 1.8 1.7ZM158.2 50l-.3 1-4.5 1.5 4 1-.3 1-5.5-1.4.2-1 4.6-1.5-4-1 .3-.9 5.5 1.3ZM158.3 48.4l-5.7-.3v-1.7c.1-.5.2-.9.5-1.3.2-.4.6-.6 1-.8a3 3 0 0 1 1.4-.3h.3c.5 0 1 .2 1.4.4.4.2.7.5.9 1 .2.4.3.8.3 1.3v1.7Zm-4.8-1.2 4 .1v-.6c.1-.5 0-1-.3-1.2-.4-.3-.8-.5-1.4-.5h-.3c-.7 0-1.1 0-1.5.3-.3.3-.5.7-.5 1.2v.7Z" fill="#fff"></path>
      <g clip-path="url(#b)" fill="#fff">
        <path d="M125.7 27c-.8.1-1.7.5-2 .8-1 .7-1.5 1.5-1.7 2.6l-.2 1.6c0 .7.1 1 .3 1.3a7 7 0 0 0 3 3.3c.7.5 1.6.8 2.7 1.2 2 .5 3.8 1.2 4.4 1.7.6.5 1 1.5.8 2.7 0 .6-.1 1-.3 1.6a5.6 5.6 0 0 1-3 3l-.4.1V48.6l.8-.2a8.9 8.9 0 0 0 3.5-2c.6-.6.9-1 1.2-1.6.4-1 .7-2 .8-2.9v-1.5a5 5 0 0 0-2.2-3 17 17 0 0 0-4.7-1.3 9.3 9.3 0 0 1-3.9-1.6l-.9-1c-.4-.5-.6-1.7-.6-2.5.1-.7.3-1.2.7-1.7.2-.3.8-.7 1.3-.8a3 3 0 0 1 2 0c.4.1.8.4 1 .7l.4.8v.5s0 .2-.2.3a2 2 0 0 0-.5.5v.4a5 5 0 0 0 1.7 3l.4-.2.4-.8c.3-.7.4-1.6.4-2.2v-.4l-.6-.6c-.2 0-.3-.2-.3-.4l-.4-1c0-.3-.1-.4-.3-.5a4 4 0 0 0-2.2-1.5h-1.4Z"></path>
        <path d="m113.3 40.2 1 .7.6.1a6 6 0 0 1 2.4.6c.7.3 1.6 1 2.2 1.5.6.6 1.5 1.3 2.2 1.7a14.3 14.3 0 0 0 5.9 1.9V52.4h.1c.4.2 1 .2 1.2 0h.1v-6h.2c1.1-.5 2-1.2 2.6-2a4.7 4.7 0 0 0 .6-3.2l-.2-1.2v-.2H113l.3.4ZM136 39.8v.2l.2 1a8.3 8.3 0 0 1-.5 3.3l.7-.8c1.3-1.3 3.3-2.3 5.1-2.6 1.2-.2 2-.6 2.4-1h.1-8Z"></path>
        <path d="M127 47.1h-.2c-.4.1-.9.3-1.3.6a4.8 4.8 0 0 0-1.5 2.1l-.1.6c0 1.5.8 2.7 2.3 3.6l1 .3h2.5a6 6 0 0 0 2.7-.9c.6-.4 1.1-1.2 1.4-2v-1l-.3-.6c-.4-.4-.9-.6-1.8-.6-.7 0-1.3 0-2 .3h-.3v1.2l.3-.1h1.2l.4.5v.7c-.2.3-.4.5-.7.6a5 5 0 0 1-1.2.5h-1.5c-1.1-.2-1.7-.7-2-1.5V51l.1-1 .3-.4.8-.6.2-.1V47h-.3Z"></path>
        <path d="m127.1 50.6-.4.2-.4.7.4.5h.1l.3-.1.3-.2v-1.2l-.3.1ZM125.1 54.1c-.3.8-.2 1.6.2 2.3.2.5.4.8.8 1.1.6.6 2.6 1 4.9 1.2.5 0 .8 0 1.2.3.2.2.5.2.6.1l-.3-.4c-.5-.4-1.1-.7-2.1-.9-.7 0-1.9-.3-2.3-.4-.8-.3-1.4-1-1.6-2v-.6l-1-.6-.3-.2v.1Z"></path>
        <path d="M127.7 55.8v.9l.3.2.9.3h.1v-2.4H127.7v1ZM127.7 59.6v1l-.1.2c-.2.4-.7.8-1.2.8s-1.1.2-1.7.4c-.5.3-.8.4-1.6.4a6 6 0 0 0-1.3.2l-1 .4h15.5l-.2-.1-1.4-.5-.8-.1c-.7 0-.8 0-1.4-.4-.5-.3-1-.4-1.7-.4-.5 0-.6-.1-.9-.3-.2-.1-.3-.3-.5-.7-.2-.4-.3-.7-.3-1.1V59l-.1-.1h-.3l-1-.3v1Z"></path>
      </g>
    </g>
    <defs>
      <clipPath id="b">
        <path fill="#fff" transform="translate(113 27)" d="M0 0h31v36H0z"></path>
      </clipPath>
    </defs>
  </symbol>
  <symbol xmlns="http://www.w3.org/2000/svg" fill="none" viewBox="0 0 192 46" id="derma_payments">
    <mask id="a" maskUnits="userSpaceOnUse" x="0" y="0" width="192" height="46">
      <path fill="#C4C4C4" d="M0 0h192v46H0z"></path>
    </mask>
    <g mask="url(#a)">
      <path d="M132.95 33.43a26.03 26.03 0 0 0 0-25.55h45.6a12.78 12.78 0 1 1 0 25.55h-45.6Z" fill="#fff" stroke="#666"></path>
      <path d="M137.46 20.29a14.23 14.23 0 1 1-28.46 0 14.23 14.23 0 0 1 28.46 0Z" stroke="#FFBE40" stroke-width="4"></path>
      <path d="M114.48 17.1c-.48-.87-.08-1.5.8-1.5 2.1-.13 5.9 4.08 7.55 6.2.45-1.6 3.16-6.34 4.46-8.51h.95v-1.2h.96v-1.35h1.27V9.31h1.27V8.19h1.27V6.6h2.23V5.41h-1.43V4.06h1.43V5.4h.72v-2.7h1.43V1.26h2.86V0h1.28v1.27h-1.28V2.7h-2.86v2.71h-1.43v1.2h-.72v1.58h1.2V6.6h1.43V5.41h1.2V4.06h1.5V5.4h-1.5v1.2h-1.2v2.7h-1.2v1.11h-.71v1.2h-1.43v1.67h-1.44v1.59h-1.19v1.35h-1.2v1.43h-1.1v1.6a147.9 147.9 0 0 0-2.8 4.6c-.55 1.04-1.26 3.19-1.58 3.9-.26.58-.58.99-.72 1.12-.13.13-.65.38-1.67.32-1.02-.07-1.54-.98-1.67-1.43l-1.11-2.63c-.56-1.17-2-3.58-2.7-4.53-.88-1.2-2.4-2.63-2.87-3.5Z" fill="#000"></path>
      <g opacity=".6">
        <path d="M188.93 7.55h-.26v.58h-.32V6.55h.59c.18 0 .33.04.43.12.1.08.15.2.15.35 0 .11-.02.2-.07.27a.48.48 0 0 1-.21.18l.34.64v.02h-.35l-.3-.58Zm-.26-.26h.27c.08 0 .14-.03.19-.07.04-.04.06-.1.06-.17a.24.24 0 0 0-.06-.18c-.04-.04-.1-.06-.2-.06h-.26v.48Z" fill="#666"></path>
        <path d="M190.17 7.33a1.33 1.33 0 1 1-2.66 0 1.33 1.33 0 0 1 2.66 0Z" stroke="#666" stroke-width=".2"></path>
      </g>
      <path d="M111.34 40.81c0 .57-.13 1.02-.39 1.37-.25.34-.6.51-1.04.51-.45 0-.8-.14-1.06-.43v1.78h-.63v-5.12h.57l.03.41a1.3 1.3 0 0 1 1.08-.47c.44 0 .8.16 1.05.5.26.33.39.8.39 1.4v.05Zm-.63-.07c0-.41-.1-.74-.27-.98a.86.86 0 0 0-.73-.37.93.93 0 0 0-.86.51v1.77c.19.34.48.5.87.5.3 0 .54-.11.72-.35.18-.25.27-.6.27-1.08Zm1.27 0c0-.36.07-.69.21-.98.14-.29.34-.51.6-.67.25-.16.54-.23.87-.23.5 0 .9.17 1.22.52a2 2 0 0 1 .47 1.39v.04c0 .36-.07.69-.21.98a1.56 1.56 0 0 1-1.47.9c-.5 0-.91-.17-1.23-.52a2 2 0 0 1-.46-1.39v-.04Zm.63.07c0 .41.1.74.29 1 .19.24.45.37.77.37a.9.9 0 0 0 .76-.38c.19-.25.28-.6.28-1.06 0-.4-.1-.73-.29-.98a.91.91 0 0 0-.76-.38.91.91 0 0 0-.76.37c-.19.25-.29.6-.29 1.06Zm6.8.94.72-2.83h.63l-1.08 3.7h-.51l-.9-2.8-.88 2.8h-.5l-1.08-3.7h.63l.73 2.77.86-2.77h.5l.88 2.83Zm3.53.94c-.5 0-.91-.16-1.23-.5a1.84 1.84 0 0 1-.47-1.31v-.12c0-.37.07-.7.21-.98.14-.29.34-.52.59-.68.25-.16.52-.24.82-.24.48 0 .85.15 1.12.47.27.32.4.77.4 1.36v.27h-2.5c0 .36.11.65.31.88.2.22.47.34.78.34.22 0 .41-.05.57-.14.15-.1.29-.21.4-.36l.4.3c-.32.47-.78.71-1.4.71Zm-.08-3.31c-.26 0-.47.09-.64.28-.18.18-.28.44-.33.78h1.86v-.05a1.2 1.2 0 0 0-.26-.75.8.8 0 0 0-.63-.26Zm4.04.11-.3-.02c-.42 0-.7.17-.85.53v2.62h-.64v-3.7h.62l.01.43c.2-.33.5-.5.88-.5.13 0 .22.02.28.05v.6Zm2.05 3.2c-.5 0-.9-.16-1.22-.5a1.84 1.84 0 0 1-.47-1.31v-.12c0-.37.07-.7.2-.98.15-.29.34-.52.6-.68.25-.16.52-.24.81-.24.48 0 .86.15 1.13.47.26.32.4.77.4 1.36v.27h-2.51c0 .36.11.65.32.88.2.22.46.34.78.34.22 0 .41-.05.56-.14.16-.1.3-.21.41-.36l.39.3c-.31.47-.78.71-1.4.71Zm-.07-3.31c-.26 0-.47.09-.65.28-.17.18-.28.44-.32.78h1.85v-.05a1.2 1.2 0 0 0-.26-.75.79.79 0 0 0-.63-.26Zm2.1 1.36c0-.56.13-1.02.4-1.36.27-.35.62-.52 1.06-.52.43 0 .77.14 1.03.44v-1.93h.63v5.25h-.58l-.03-.4c-.26.32-.61.47-1.06.47-.43 0-.78-.17-1.05-.53a2.2 2.2 0 0 1-.4-1.37v-.05Zm.63.07c0 .42.08.75.26.99.17.24.41.35.72.35.4 0 .69-.18.88-.54v-1.7a.93.93 0 0 0-.88-.52.84.84 0 0 0-.72.36c-.18.24-.26.6-.26 1.06Zm8.34 0a2.2 2.2 0 0 1-.4 1.37c-.25.34-.6.51-1.04.51-.46 0-.82-.16-1.08-.5l-.03.43h-.58v-5.25h.63v1.96c.26-.32.6-.47 1.06-.47.45 0 .8.17 1.05.5.26.35.39.81.39 1.4v.05Zm-.63-.07c0-.43-.09-.76-.25-1a.83.83 0 0 0-.72-.35c-.42 0-.72.2-.9.58v1.6c.2.4.5.58.9.58.3 0 .55-.11.71-.35.17-.23.26-.59.26-1.06Zm2.6.96.86-2.78h.68l-1.5 4.27c-.22.62-.59.93-1.09.93l-.12-.01-.23-.05v-.51l.17.01c.21 0 .38-.04.5-.13a.93.93 0 0 0 .3-.47l.13-.38-1.32-3.66h.7l.92 2.78Zm6.4-.38c0-.2-.08-.34-.21-.45a2.6 2.6 0 0 0-.74-.33 5.32 5.32 0 0 1-.84-.34c-.57-.3-.85-.71-.85-1.23 0-.27.07-.5.22-.72.16-.21.37-.38.66-.5.28-.11.6-.17.95-.17.36 0 .68.06.95.2a1.42 1.42 0 0 1 .88 1.34h-1.02c0-.23-.08-.4-.22-.53a.88.88 0 0 0-.6-.2.94.94 0 0 0-.59.17.5.5 0 0 0-.2.41c0 .16.07.3.23.4.17.12.41.22.73.32.58.17 1 .39 1.27.65s.4.58.4.97c0 .43-.16.77-.49 1.02-.32.24-.76.36-1.31.36-.39 0-.73-.07-1.05-.2a1.67 1.67 0 0 1-.72-.58 1.48 1.48 0 0 1-.25-.85h1.03c0 .55.33.82.99.82.24 0 .43-.05.57-.15.13-.1.2-.23.2-.41Zm3.03-.1.69-2.3h1.06l-1.49 4.28-.08.2c-.22.48-.59.72-1.1.72-.14 0-.28-.02-.43-.07v-.75h.15a.8.8 0 0 0 .41-.08c.1-.06.17-.15.22-.28l.12-.3-1.3-3.72h1.07l.68 2.3Zm3.06-2.3.03.42a1.3 1.3 0 0 1 1.07-.48c.47 0 .8.18.98.56.26-.38.63-.56 1.1-.56.41 0 .7.11.9.35.2.23.3.58.3 1.05v2.36h-1v-2.36c0-.2-.03-.36-.12-.45-.08-.1-.22-.15-.43-.15-.3 0-.5.14-.62.42v2.54h-.98v-2.35c0-.22-.04-.37-.13-.47-.08-.1-.22-.14-.43-.14a.64.64 0 0 0-.6.35v2.61h-1v-3.7h.93Zm7.28 3.7c-.04-.09-.07-.2-.1-.33-.24.27-.55.4-.93.4-.36 0-.66-.1-.9-.31a1.01 1.01 0 0 1-.36-.8c0-.39.15-.69.44-.9.29-.2.71-.31 1.26-.32h.45v-.2a.6.6 0 0 0-.13-.42c-.09-.1-.22-.15-.41-.15a.6.6 0 0 0-.4.12.4.4 0 0 0-.14.33h-.98a1 1 0 0 1 .2-.6c.13-.18.31-.32.56-.43.24-.1.5-.15.8-.15.46 0 .82.11 1.1.34.26.23.4.55.4.97v1.6c0 .35.05.61.14.8v.05h-1Zm-.81-.68c.14 0 .28-.04.4-.1a.66.66 0 0 0 .27-.26v-.64h-.37c-.49 0-.75.17-.78.51v.06c0 .13.03.23.12.3.09.09.2.13.36.13Zm3.33-3.02.03.43c.27-.33.62-.5 1.07-.5.39 0 .68.12.87.35.2.23.3.58.3 1.03v2.4h-1v-2.37c0-.21-.04-.36-.13-.46-.09-.1-.24-.14-.45-.14a.68.68 0 0 0-.63.36v2.6h-.99v-3.7h.93Zm4.2-.9v.9h.63v.73h-.63v1.84c0 .14.03.24.08.3s.15.09.3.09c.1 0 .2-.01.29-.03v.75c-.2.06-.4.1-.6.1-.7 0-1.04-.36-1.06-1.06v-2h-.54v-.72h.54v-.9h.99Zm2.88 4.67c-.54 0-.98-.16-1.32-.5a1.78 1.78 0 0 1-.51-1.33v-.1c0-.36.07-.7.22-.99.14-.3.34-.52.6-.67.27-.16.57-.24.9-.24.51 0 .9.16 1.2.47.29.32.44.78.44 1.36v.4h-2.36c.03.25.13.44.29.59.16.14.36.21.61.21.38 0 .68-.13.9-.4l.48.53a1.5 1.5 0 0 1-.6.5c-.26.11-.54.17-.84.17Zm-.1-3.03c-.2 0-.36.06-.49.2-.12.13-.2.32-.23.56h1.38v-.08a.72.72 0 0 0-.18-.5c-.12-.12-.28-.18-.49-.18Zm3.73 2.23c.18 0 .33-.05.44-.15.12-.1.17-.23.18-.4h.93c0 .26-.07.49-.2.7-.14.2-.33.36-.56.48-.24.11-.5.17-.78.17a1.6 1.6 0 0 1-1.25-.5 2 2 0 0 1-.45-1.4v-.06c0-.57.15-1.02.45-1.36.3-.34.72-.51 1.25-.51.46 0 .83.13 1.1.4.29.25.43.6.44 1.04h-.93c0-.19-.06-.34-.18-.46a.6.6 0 0 0-.45-.18.6.6 0 0 0-.52.25c-.12.17-.18.44-.18.81v.1c0 .39.06.66.18.83.11.16.3.24.53.24ZM149.78 19.79h-2.06l-4-6.23v6.23h-2.05v-9.46h2.06l4 6.24v-6.24h2.05v9.46ZM150.85 16.2a4 4 0 0 1 .43-1.86c.28-.54.69-.96 1.22-1.26.53-.3 1.15-.45 1.85-.45 1 0 1.82.29 2.45.87a3.4 3.4 0 0 1 1.06 2.36l.01.48c0 1.08-.32 1.95-.95 2.6a3.4 3.4 0 0 1-2.55.98 3.43 3.43 0 0 1-2.56-.98 3.63 3.63 0 0 1-.96-2.65v-.08Zm1.98.14c0 .67.13 1.18.4 1.54.26.35.64.52 1.14.52.47 0 .85-.17 1.12-.52.27-.35.4-.9.4-1.67a2.5 2.5 0 0 0-.4-1.52 1.34 1.34 0 0 0-1.14-.54c-.48 0-.86.18-1.12.54-.26.35-.4.9-.4 1.65ZM162.97 14.52c-.27-.04-.5-.05-.71-.05-.75 0-1.24.24-1.47.72v4.6h-1.98v-7.03h1.87l.05.84c.4-.65.95-.97 1.65-.97.22 0 .43.03.62.08l-.03 1.8ZM166.36 11.03v1.73h1.27v1.38h-1.27v3.5c0 .26.05.45.16.56.1.12.3.17.6.17.22 0 .41-.01.58-.04v1.42c-.38.11-.78.17-1.2.17-1.38 0-2.09-.67-2.12-2v-3.78h-1.08v-1.38h1.08v-1.73h1.98ZM167.94 16.2a4 4 0 0 1 .42-1.86c.28-.54.69-.96 1.22-1.26.53-.3 1.15-.45 1.85-.45 1 0 1.82.29 2.45.87a3.4 3.4 0 0 1 1.06 2.36l.01.48c0 1.08-.31 1.95-.95 2.6a3.4 3.4 0 0 1-2.55.98 3.43 3.43 0 0 1-2.56-.98 3.63 3.63 0 0 1-.95-2.65v-.08Zm1.97.14c0 .67.14 1.18.4 1.54.27.35.65.52 1.14.52.48 0 .85-.17 1.12-.52.27-.35.4-.9.4-1.67a2.5 2.5 0 0 0-.4-1.52 1.34 1.34 0 0 0-1.13-.54c-.49 0-.86.18-1.13.54-.26.35-.4.9-.4 1.65ZM177.71 12.76l.06.81a2.64 2.64 0 0 1 2.13-.94c.79 0 1.37.22 1.76.65.38.44.58 1.1.59 1.97v4.54h-1.98v-4.5c0-.4-.1-.68-.28-.86-.18-.18-.48-.28-.9-.28-.56 0-.98.23-1.26.68v4.96h-1.98v-7.03h1.86Z" fill="#000"></path>
      <path d="M146.24 27.72c0-.25-.1-.44-.28-.57a3.7 3.7 0 0 0-1.02-.43c-.48-.15-.87-.3-1.16-.44-.77-.4-1.16-.93-1.16-1.6 0-.35.1-.66.31-.94.21-.27.5-.49.9-.64.39-.15.83-.23 1.31-.23.49 0 .92.08 1.3.25.39.17.68.4.9.7.2.31.31.66.31 1.05h-1.4c0-.3-.1-.53-.3-.7-.2-.16-.48-.24-.83-.24s-.61.07-.8.2a.63.63 0 0 0-.3.55c0 .21.12.39.34.53.23.14.56.27 1 .4.8.23 1.38.5 1.74.84.37.34.55.76.55 1.27 0 .55-.22 1-.67 1.31-.45.32-1.05.48-1.8.48-.53 0-1.01-.1-1.44-.27a2.28 2.28 0 0 1-1-.75 1.84 1.84 0 0 1-.33-1.1h1.41c0 .71.45 1.07 1.35 1.07.34 0 .6-.07.79-.2a.62.62 0 0 0 .28-.54ZM152.53 26.62h-2.7v1.73H153v1.07h-4.58v-6.46h4.57v1.08h-3.17v1.54h2.7v1.04ZM159 27.27c-.06.7-.33 1.24-.82 1.64-.49.4-1.13.6-1.94.6-.87 0-1.56-.28-2.06-.84a3.32 3.32 0 0 1-.75-2.3v-.39c0-.62.11-1.17.34-1.64.23-.48.56-.84 1-1.09a2.9 2.9 0 0 1 1.5-.38c.78 0 1.42.2 1.9.6.48.4.76.96.84 1.68h-1.41c-.04-.42-.16-.72-.37-.9-.21-.2-.53-.29-.97-.29-.47 0-.82.16-1.05.48-.23.32-.35.8-.36 1.48v.49c0 .7.11 1.2.34 1.53.22.32.57.48 1.06.48.43 0 .75-.1.97-.28.21-.19.34-.48.37-.87h1.4ZM164.9 22.96v4.25c0 .71-.24 1.27-.7 1.68a2.8 2.8 0 0 1-1.92.62c-.8 0-1.43-.2-1.9-.6-.47-.4-.7-.95-.72-1.65v-4.3h1.41v4.26c0 .43.1.73.32.93.22.2.51.29.9.29.78 0 1.18-.4 1.2-1.18v-4.3h1.41ZM168.4 27.05h-1.13v2.37h-1.4v-6.46h2.53c.8 0 1.43.17 1.87.5.44.35.66.83.66 1.45 0 .44-.1.81-.3 1.1-.21.3-.51.53-.92.7l1.47 2.65v.06h-1.5l-1.29-2.37Zm-1.13-1.07h1.13c.36 0 .63-.09.83-.26.2-.17.29-.4.29-.7 0-.3-.1-.55-.28-.72-.18-.18-.46-.26-.84-.26h-1.13v1.94ZM175.92 26.62h-2.7v1.73h3.17v1.07h-4.58v-6.46h4.57v1.08h-3.16v1.54h2.7v1.04ZM177.02 29.42v-6.46h2.1c.6 0 1.14.13 1.62.38.47.26.84.62 1.1 1.1.27.47.4 1 .4 1.6v.3c0 .6-.13 1.13-.39 1.6-.26.47-.63.83-1.1 1.09-.48.26-1.01.39-1.61.39h-2.12Zm1.41-5.38v4.31h.68c.55 0 .97-.17 1.26-.51.3-.34.44-.83.45-1.46v-.34c0-.66-.14-1.16-.43-1.5-.3-.33-.71-.5-1.26-.5h-.7Z" fill="#666"></path>
      <path d="M0 3.62h3.26l1.62 11.03 5.5-11.03h3.53l-7.5 14.76H2.33L0 3.62ZM21.87 13.26l-.11.56h-7.45l-.01.18-.01.17c0 .71.2 1.25.58 1.6.4.36.97.54 1.75.54.67 0 1.38-.11 2.13-.34.74-.22 1.52-.55 2.34-1l-.5 2.75a12.37 12.37 0 0 1-4.65.94c-1.56 0-2.75-.4-3.6-1.2a4.43 4.43 0 0 1-1.26-3.37 7.25 7.25 0 0 1 1.58-4.63 6.1 6.1 0 0 1 5.02-2.42c1.35 0 2.42.4 3.21 1.2.79.8 1.19 1.87 1.19 3.22a7.63 7.63 0 0 1-.21 1.8Zm-3-1.62.03-.26.01-.27c0-.52-.14-.94-.42-1.25a1.49 1.49 0 0 0-1.16-.47c-.62 0-1.15.2-1.59.58-.43.37-.77.93-1 1.67h4.12ZM31.33 10.32a3.2 3.2 0 0 0-1.6-.42c-.81 0-1.5.29-2.03.87-.53.58-.9 1.41-1.08 2.5l-.9 5.1h-3.2l1.94-11.06h3.2l-.35 1.9c.43-.7.95-1.24 1.57-1.6a4.05 4.05 0 0 1 2.5-.55l.5.06-.55 3.2ZM32.64 7.3h3.2L33.9 18.39h-3.2L32.64 7.3Zm.74-4.3h3.2l-.5 2.89h-3.21L33.38 3ZM46.91 3h3.2l-.51 2.89h-3.2L46.9 3Zm-1.5 0-.42 2.32h-1.75c-.44 0-.77.1-.97.28-.2.18-.35.49-.43.93l-.15.78h7.67l-1.95 11.07h-3.18l1.48-8.54h-4.45l-1.5 8.54h-3.2l1.5-8.54h-1.57l.44-2.53h1.56l.15-.77A4.3 4.3 0 0 1 40 3.85 4.6 4.6 0 0 1 42.97 3h2.44ZM60.55 13.26l-.11.56h-7.45l-.01.18-.01.17c0 .71.2 1.25.58 1.6.39.36.97.54 1.75.54.67 0 1.38-.11 2.12-.34a12.6 12.6 0 0 0 2.35-1l-.5 2.75a12.37 12.37 0 0 1-4.65.94c-1.56 0-2.76-.4-3.6-1.2a4.43 4.43 0 0 1-1.26-3.37 7.25 7.25 0 0 1 1.58-4.63 6.1 6.1 0 0 1 5.02-2.42c1.35 0 2.42.4 3.2 1.2.8.8 1.2 1.87 1.2 3.22a7.6 7.6 0 0 1-.21 1.8Zm-3-1.62.03-.26.01-.27c0-.52-.14-.94-.42-1.25A1.49 1.49 0 0 0 56 9.39c-.62 0-1.15.2-1.59.58-.43.37-.77.93-1 1.67h4.12ZM66.23 16.1c.82 0 1.48-.43 2-1.26a6.2 6.2 0 0 0 .77-3.28c0-.62-.15-1.1-.44-1.44a1.48 1.48 0 0 0-1.2-.5c-.8 0-1.47.4-1.99 1.24a5.85 5.85 0 0 0-.78 3.17c0 .67.14 1.18.41 1.54.29.35.7.52 1.23.52Zm3.35-7.17L70.62 3h3.2l-2.69 15.38h-3.21l.3-1.6c-.5.64-1 1.12-1.54 1.43-.53.3-1.11.45-1.74.45-1.12 0-2.01-.4-2.66-1.18a4.93 4.93 0 0 1-.98-3.24c0-.84.11-1.67.33-2.48.24-.8.56-1.53 1-2.19a6.13 6.13 0 0 1 1.82-1.89c.68-.42 1.4-.64 2.18-.64.68 0 1.26.16 1.73.47.48.3.89.77 1.22 1.42ZM84.63 11c-.7 0-1.25.35-1.7 1.06-.43.7-.65 1.63-.65 2.76 0 .5.12.9.37 1.2.25.29.59.43 1.03.43.67 0 1.23-.34 1.67-1.04.44-.7.66-1.59.66-2.67 0-.57-.12-1-.36-1.3-.23-.3-.58-.44-1.02-.44Zm-2.82 6.03-.24 1.35h-2.7l2.26-12.94h2.7l-.88 4.99c.41-.55.84-.95 1.3-1.2.44-.26.93-.4 1.46-.4.95 0 1.7.34 2.24 1 .55.67.83 1.58.83 2.72a7.53 7.53 0 0 1-1.12 3.94c-.45.7-.97 1.23-1.54 1.59-.57.36-1.18.54-1.84.54-.57 0-1.05-.13-1.46-.39-.4-.26-.73-.66-1-1.2ZM89.72 9.06h2.52l1.15 6.45 2.98-6.45h2.86l-5.3 10.2a6.41 6.41 0 0 1-1.65 2.25c-.5.36-1.16.54-1.96.54H88.7l.28-1.95h.84c.44 0 .78-.09 1.03-.25.24-.16.46-.45.65-.86l.24-.5-2.02-9.43ZM20.2 23.05h4.33l2.15 14.63 7.3-14.63h4.69L28.7 42.62H23.3l-3.1-19.57ZM39.94 23.05h4.53l-3.43 19.57H36.5l3.44-19.57ZM59.98 23.66l-.73 4.15a12.1 12.1 0 0 0-2.63-1.1 9.27 9.27 0 0 0-2.54-.36c-1.13 0-2.02.2-2.66.59-.63.4-.94.94-.94 1.64 0 .44.14.8.42 1.05.28.24.86.48 1.73.72l1.86.51a6.92 6.92 0 0 1 3.44 1.9 4.65 4.65 0 0 1 1.08 3.2 6.5 6.5 0 0 1-2.17 5.11c-1.45 1.29-3.4 1.93-5.85 1.93a16.72 16.72 0 0 1-6.71-1.4l.72-4.26c1.04.67 2.05 1.17 3.04 1.5.99.34 1.96.5 2.92.5a4.2 4.2 0 0 0 2.53-.7c.66-.48.99-1.08.99-1.81 0-.49-.15-.86-.45-1.12a5.15 5.15 0 0 0-1.91-.83l-1.85-.5a5.78 5.78 0 0 1-3.05-1.79c-.67-.81-1-1.87-1-3.16 0-2.04.7-3.67 2.1-4.89 1.4-1.23 3.3-1.85 5.67-1.85a21.58 21.58 0 0 1 6 .97ZM72.13 39.05H65.1l-1.75 3.57H58.7l9.96-19.57h5.2l3.11 19.57h-4.32l-.51-3.57Zm-5.31-3.55h4.72l-1.07-7.54-3.65 7.54Z" fill="#105EA6"></path>
      <path d="m21.1 22.38-6.5.6c7.4.7 10.31 4.11 11.32 9.52-.2-1.7-.97-7.41-1.2-9.02-.25-1.6-3.21-1.1-3.61-1.1Z" fill="#F4A637"></path>
    </g>
  </symbol>
  <symbol xmlns="http://www.w3.org/2000/svg" fill="none" viewBox="0 0 20 20" id="info">
    <path fill-rule="evenodd" clip-rule="evenodd" d="M20 10C20 15.5229 15.5225 20 10 20C4.47754 20 0 15.5229 0 10C0 4.47705 4.47754 0 10 0C15.5225 0 20 4.47705 20 10ZM12 5C12 6.10449 11.1045 7 10 7C8.89551 7 8 6.10449 8 5C8 3.89551 8.89551 3 10 3C11.1045 3 12 3.89551 12 5ZM10 8C8.89551 8 8 8.89551 8 10V15C8 16.1045 8.89551 17 10 17C11.1045 17 12 16.1045 12 15V10C12 8.89551 11.1045 8 10 8Z" fill="white"></path>
  </symbol>
  <symbol xmlns="http://www.w3.org/2000/svg" fill="none" viewBox="0 0 169 46" id="logo">
    <path d="M0.688261 12.3865C0.676846 12.4778 0.654015 12.5577 0.6426 12.6491C1.24761 12.8545 1.84121 13.1399 2.45764 13.2655C5.01469 13.8134 5.31149 14.0874 5.3229 16.7129C5.35715 23.9274 5.33432 31.1305 5.3229 38.3451C5.3229 38.9729 5.31149 39.6122 5.24299 40.24C5.09459 41.6441 4.48958 42.3176 3.11974 42.6715C2.54897 42.8199 1.96678 42.9226 1.41884 43.1053C1.09921 43.208 0.81383 43.4135 0.505615 43.5619C0.528446 43.6304 0.539861 43.6989 0.562692 43.7674C0.733923 43.8016 0.916569 43.8473 1.0878 43.8473C4.63798 43.8473 8.18816 43.8701 11.7383 43.8587C12.1265 43.8587 12.5146 43.7445 12.9027 43.676V43.3678C12.6516 43.2651 12.4004 43.1281 12.1379 43.0824C11.5557 42.9797 10.9735 42.9226 10.3913 42.8427C8.61053 42.5802 7.93702 41.9181 7.64022 40.1373C7.57173 39.7035 7.51465 39.2697 7.51465 38.8245C7.52607 31.7584 7.5489 24.6923 7.58314 17.6262C7.58314 17.3522 7.68588 17.0896 7.77721 16.6102C8.23382 17.1353 8.54204 17.5348 8.8845 17.8887C12.8913 22.0325 16.8981 26.1649 20.9163 30.2972C24.9916 34.4752 29.0555 38.6647 33.1536 42.8085C33.8499 43.5162 34.7403 44.0413 35.7106 44.7719C35.7106 43.95 35.7106 43.4021 35.7106 42.8541C35.7106 34.7378 35.7106 26.6215 35.7106 18.5166C35.7106 17.5234 35.722 16.5189 35.8248 15.5257C35.9618 14.1331 36.5325 13.5395 37.9024 13.2769C38.4731 13.1627 39.0782 13.1742 39.6489 13.06C39.9686 12.9915 40.2539 12.786 40.5622 12.6376C40.5279 12.5463 40.4937 12.4664 40.4594 12.3751C36.4298 12.2495 32.4116 12.2153 28.3591 12.5121C28.7244 12.8089 29.1125 12.9801 29.5121 13.0828C29.9801 13.197 30.4824 13.2312 30.9504 13.3454C32.6855 13.7563 33.4618 14.6696 33.4732 16.4275C33.5189 22.9115 33.5303 29.384 33.5417 35.8679C33.5417 36.3245 33.4161 36.7812 33.3248 37.3747C32.5942 36.53 32.0235 35.7994 31.3842 35.1373C24.2382 27.7858 17.0807 20.4458 9.93471 13.0828C9.36394 12.4892 8.7361 12.2153 7.92561 12.2153C5.7681 12.2153 3.62201 12.2153 1.46451 12.2267C1.20195 12.2267 0.950815 12.3066 0.688261 12.3523V12.3865Z" fill="#1B281D"></path>
    <path d="M71.2696 3.24319L71.1668 3.0263C69.2719 3.30027 67.5025 2.77516 65.7559 2.18156C64.6943 1.82769 63.6098 1.5423 62.5254 1.22267C60.7332 0.68615 58.998 0.834549 57.3428 1.71353C56.1898 2.32996 55.3679 3.30027 54.546 4.27058C54.7515 4.33907 54.8885 4.35048 55.0255 4.31624C56.441 4.00802 57.8451 4.0651 59.2378 4.43039C60.8131 4.85276 62.3998 5.26371 63.9637 5.74316C65.3792 6.17694 66.7947 6.2226 68.0847 5.48061C69.2034 4.82993 70.2079 3.99661 71.2581 3.24319H71.2696Z" fill="#1B281D"></path>
    <path d="M127.981 12.4668C128.278 12.3983 128.575 12.2842 128.872 12.2613C133.221 12.0559 137.559 11.7819 141.908 11.702C144.305 11.6677 146.691 12.0787 148.963 12.9006C152.148 14.0421 154.237 16.2225 154.773 19.6242C155.195 22.3411 154.396 24.7726 152.353 26.6447C151.36 27.5465 150.116 28.1744 148.928 28.8365C148.426 29.1104 148.255 29.236 148.734 29.6812C152.695 33.3798 156.634 37.1012 160.595 40.7998C162.262 42.3522 164.316 43.0714 166.497 43.528C167.124 43.665 167.741 43.8819 168.494 44.0988C167.946 44.7152 167.398 44.9892 166.748 45.0006C161.976 45.1148 157.73 43.7107 154.179 40.4915C151.269 37.8546 148.449 35.1149 145.629 32.3752C144.533 31.3136 143.312 30.7314 141.771 30.7656C140.31 30.7999 138.849 30.7656 137.319 30.7656C137.308 30.9483 137.273 31.1538 137.273 31.3707C137.273 34.1674 137.273 36.9756 137.273 39.7724C137.273 41.713 138.015 42.5463 139.956 42.8317C140.629 42.923 141.314 42.9801 141.988 43.0828C142.228 43.1171 142.456 43.2426 142.73 43.3454C142.273 44.0531 141.634 44.0646 141.04 44.0646C139.054 44.076 137.079 44.0417 135.093 44.0303C132.913 44.0189 130.744 44.0075 128.563 43.9732C128.301 43.9732 128.038 43.8705 127.776 43.8134C127.764 43.7335 127.753 43.6422 127.73 43.5623C128.084 43.4025 128.426 43.197 128.792 43.1057C129.499 42.923 130.23 42.8203 130.938 42.6719C132.125 42.4093 132.696 41.5988 132.844 40.4573C132.913 39.8751 132.901 39.2929 132.901 38.7107C132.901 31.5305 132.901 24.3388 132.901 17.1585C132.901 14.1677 132.251 13.4485 129.26 13.1175C128.814 13.0718 128.381 12.8549 127.947 12.7179C127.947 12.638 127.958 12.5581 127.97 12.4668H127.981ZM137.319 29.5899C139.625 29.4985 141.805 29.5214 143.963 29.3045C146.611 29.0419 148.438 27.5009 149.305 25.0237C149.762 23.7224 149.956 22.284 150.047 20.8914C150.321 16.5992 147.661 13.7682 143.632 12.9577C142.068 12.6495 140.424 12.6266 138.814 12.6495C137.182 12.6723 137.33 12.3755 137.319 14.1677C137.296 18.9393 137.319 23.7109 137.319 28.4712C137.319 28.7794 137.319 29.0876 137.319 29.5785V29.5899Z" fill="#1B281D"></path>
    <path d="M0.688261 12.3865C0.950815 12.3408 1.20195 12.2611 1.46451 12.2611C3.62201 12.2497 5.7681 12.2611 7.92561 12.2497C8.72468 12.2497 9.35253 12.5237 9.93471 13.1173C17.0693 20.4802 24.2382 27.8203 31.3842 35.1718C32.0235 35.8338 32.5942 36.5644 33.3248 37.4092C33.4161 36.8156 33.5417 36.359 33.5417 35.9023C33.5303 29.4184 33.5075 22.9459 33.4732 16.462C33.4732 14.704 32.6855 13.7908 30.9504 13.3798C30.4824 13.2657 29.9801 13.2428 29.5121 13.1173C29.1125 13.0145 28.7244 12.8433 28.3591 12.5465C32.4116 12.2497 36.4298 12.2725 40.4594 12.4095C40.4937 12.5008 40.5279 12.5807 40.5622 12.6721C40.2654 12.8205 39.9686 13.0259 39.6489 13.0944C39.0782 13.2086 38.4846 13.1972 37.9024 13.3113C36.5325 13.5739 35.9503 14.1675 35.8248 15.5601C35.7334 16.5533 35.7106 17.5578 35.7106 18.551C35.7106 26.6673 35.7106 34.7836 35.7106 42.8885C35.7106 43.4365 35.7106 43.9844 35.7106 44.8063C34.7403 44.0757 33.8613 43.5506 33.1536 42.8429C29.044 38.6991 24.9802 34.5097 20.9163 30.3316C16.8981 26.1993 12.8913 22.0669 8.8845 17.9231C8.54204 17.5693 8.23382 17.1811 7.77721 16.6446C7.68588 17.1241 7.58314 17.3866 7.58314 17.6606C7.5489 24.7267 7.52607 31.7928 7.51465 38.8589C7.51465 39.2927 7.57173 39.7379 7.64022 40.1717C7.92561 41.9525 8.61053 42.6146 10.3913 42.8771C10.9735 42.957 11.5557 43.0141 12.1379 43.1169C12.4004 43.1625 12.6516 43.3109 12.9027 43.4022V43.7105C12.5146 43.7675 12.1265 43.8931 11.7383 43.8931C8.18816 43.8931 4.63798 43.8931 1.0878 43.8817C0.916569 43.8817 0.733923 43.8246 0.562692 43.8018C0.539861 43.7333 0.528446 43.6648 0.505615 43.5963C0.802415 43.4365 1.09921 43.2424 1.41884 43.1397C1.9782 42.9685 2.56038 42.8543 3.11974 42.7059C4.50099 42.352 5.09459 41.6785 5.24299 40.2744C5.31149 39.6466 5.3229 39.0073 5.3229 38.3795C5.3229 31.165 5.34573 23.9619 5.3229 16.7473C5.3229 14.1104 5.0261 13.8478 2.45764 13.2999C1.84121 13.1629 1.24761 12.889 0.6426 12.6835C0.654015 12.5922 0.676846 12.5122 0.688261 12.4209V12.3865Z" fill="#1B281D"></path>
    <path d="M43.8841 28.22C44.6489 21.2224 47.7881 16.0626 54.1008 13.2773C60.1281 10.6175 66.3381 10.6746 72.2627 13.5969C78.1758 16.5078 81.4064 21.405 81.2466 28.0602C81.1438 32.4437 79.3174 36.245 76.1667 39.3842C73.233 42.3066 69.6143 43.9732 65.676 44.9207C64.3062 45.2517 62.7537 45.0348 61.3153 44.8294C58.7469 44.4641 56.2241 43.8705 53.8269 42.8431C48.4502 40.5372 45.2539 36.4847 44.158 30.777C43.9754 29.8524 43.9412 28.8935 43.8612 28.2086L43.8841 28.22ZM76.4293 28.4027C76.3951 27.946 76.3836 27.1355 76.2809 26.3365C76.1896 25.6401 76.0183 24.9552 75.8585 24.2589C74.2261 16.9188 67.9363 12.501 61.4409 12.7408C56.7492 12.912 53.3018 14.9782 50.9502 18.985C48.6671 22.8776 48.1991 27.0556 49.3406 31.325C50.9274 37.2496 54.3291 41.6787 60.6418 43.1399C66.3267 44.4527 71.4864 42.2837 74.3745 37.0897C75.8014 34.5327 76.4521 31.7017 76.4179 28.4027H76.4293Z" fill="#1B281D"></path>
    <path d="M124.134 27.957C123.381 34.9889 120.025 40.1943 113.404 43.1395C111.189 44.1212 108.86 44.6691 106.475 44.9203C103.952 45.1828 101.509 44.5778 99.123 43.8244C95.4587 42.66 92.1711 40.845 89.9108 37.6601C87.194 33.8359 86.0981 29.6351 87.2967 24.9434C88.3355 20.8681 90.3675 17.5234 93.8263 15.0348C96.6231 13.0257 99.7737 12.0098 103.141 11.5988C107.742 11.0509 112.148 11.8043 116.143 14.133C120.961 16.9412 123.609 21.222 124.123 26.7812C124.157 27.1694 124.123 27.5575 124.123 27.9456L124.134 27.957ZM91.7373 27.1351C91.6688 29.11 92.0113 31.0049 92.6277 32.8771C94.8537 39.7491 100.504 43.6189 107.057 43.3906C111.908 43.2194 115.424 40.8906 117.49 36.6441C120.002 31.4958 119.922 26.1648 117.49 20.9822C114.933 15.5257 110.516 12.7175 104.443 12.7175C99.808 12.7175 96.2692 14.8065 93.9291 18.7791C92.4222 21.3361 91.6117 24.1329 91.7373 27.1351Z" fill="#1B281D"></path>
    <path d="M71.2696 3.24319C70.2193 3.99661 69.2035 4.82993 68.0962 5.4806C66.8063 6.23402 65.4022 6.17694 63.9753 5.74316C62.4114 5.26371 60.8246 4.85276 59.2493 4.43039C57.8566 4.0651 56.4525 4.00802 55.037 4.31624C54.9001 4.35048 54.7517 4.33907 54.5576 4.27058C55.3795 3.30027 56.2014 2.32996 57.3544 1.71353C59.0096 0.834549 60.7447 0.68615 62.5369 1.22267C63.61 1.5423 64.7059 1.82769 65.7675 2.18156C67.5255 2.77516 69.2834 3.30027 71.1784 3.0263L71.2811 3.24319L71.2696 3.24319Z" fill="#1B281D"></path>
  </symbol>
  <symbol xmlns="http://www.w3.org/2000/svg" fill="none" viewBox="0 0 52 44" id="made_usa">
    <path d="M51.289 7.9893C50.9821 7.31219 50.6103 6.63833 50.1848 5.9872C49.7789 5.36692 49.1879 5.12498 48.4767 5.28898C47.8109 5.44324 47.3822 5.91575 47.2377 6.65781C46.8951 8.4196 45.9403 9.53513 44.3182 10.0693C43.4316 10.3616 42.8503 11.0192 42.5921 12.0276C42.4768 12.4741 42.3209 12.9824 41.9231 13.3364C40.996 14.1612 40.1711 14.7555 39.3251 15.2069C39.0994 15.3271 38.8932 15.3531 38.7113 15.2833C38.5132 15.2069 38.3655 15.03 38.2599 14.7393C38.0683 14.2116 37.9823 13.6757 37.8978 13.0814C37.5633 10.714 36.4803 9.48479 34.4879 9.21525C33.931 9.13893 33.3854 9.25259 32.8073 9.37113C32.6644 9.40035 32.5215 9.42958 32.3786 9.45719C31.5716 9.60657 30.9773 9.45719 30.4496 8.97655C30.0502 8.6112 29.6134 8.27346 29.1912 7.94708C28.9639 7.77172 28.7382 7.59635 28.5173 7.41774C28.0416 7.0329 27.6145 6.85591 27.1842 6.85754C24.5862 6.88839 22.222 6.76823 20.1566 6.50193H19.8838C19.3885 6.49706 19.1157 6.68542 19.0849 7.0735C19.0427 7.5931 19.4616 7.7571 19.8204 7.80419C20.3546 7.87401 20.8775 7.93247 21.3939 7.98443V17.0629C21.3939 17.7839 20.8077 18.3717 20.0851 18.3717H1.94602C1.87782 17.8472 1.82587 17.3178 1.79339 16.782L1.76578 16.316C1.65861 14.5656 1.5482 12.7551 1.84859 10.977C2.04507 9.81279 2.29025 8.63881 2.52569 7.50542C2.62961 7.00855 2.72868 6.52629 2.8261 6.04241C2.85208 5.91413 2.87806 5.78098 2.94626 5.66245C3.08266 5.42538 3.24179 5.39615 3.33272 5.3994C3.43502 5.40427 3.58114 5.45623 3.68669 5.68193C3.72891 5.77124 3.76138 5.86379 3.78899 5.94498C3.81821 6.03104 3.84745 6.11223 3.88318 6.1853C4.0829 6.58799 4.45798 7.06863 5.11073 7.06863H5.12697C5.78946 7.06051 6.05901 6.47758 6.16131 6.13009C6.37727 5.39777 6.83193 5.40264 7.29146 5.51468C10.1525 6.22102 13.0753 6.81694 15.9786 7.28621C16.2076 7.32356 16.4219 7.24886 16.5664 7.08324C16.7142 6.91274 16.7613 6.67405 16.6914 6.44348C16.6005 6.14795 16.4138 6.00831 16.0225 5.94336C13.1906 5.47409 10.3214 4.88629 7.25249 4.14585C6.16457 3.88442 5.76349 4.07927 5.21141 5.14284L5.00681 5.53579L4.80709 5.13959C4.36543 4.26438 3.87993 3.91852 3.2288 4.01595C2.41691 4.13773 1.94116 4.62648 1.73331 5.55365C1.54008 6.4175 1.40043 7.08162 1.28028 7.70677C1.20558 8.09647 1.1179 8.49105 1.03509 8.87101C0.815877 9.8615 0.590165 10.8845 0.559314 11.9139C0.500858 13.8819 0.479757 16.4686 0.851599 19.013C1.0838 20.6092 1.46701 22.2541 2.68484 23.4752C3.31323 24.1052 3.80524 24.9203 4.14785 25.8994C4.57653 27.1205 5.34131 27.8528 6.48931 28.137C7.25898 28.327 7.94582 28.715 8.53525 29.2915C8.81941 29.5691 9.16689 29.7965 9.62967 30.0043C11.044 30.6425 12.6044 30.9153 14.5351 30.8633C15.2057 30.8454 15.7156 31.0354 16.0923 31.443C16.4446 31.8246 16.6638 32.3117 16.7791 32.9774C16.9756 34.0946 17.5504 34.6272 18.5912 34.6532C19.0475 34.6645 19.5022 34.5785 19.9747 34.3934C20.1176 34.3365 20.254 34.3089 20.3806 34.3089C20.7281 34.3089 21.0107 34.5151 21.2169 34.9227C21.3841 35.2507 21.4653 35.5982 21.5449 35.9327L21.5774 36.0675C21.9248 37.5029 22.6961 38.4625 23.8701 38.922C24.2809 39.0828 24.695 39.0584 25.0392 38.8571C25.4468 38.6168 25.7261 38.1443 25.8024 37.563C25.8089 37.5142 25.817 37.4671 25.8251 37.4184C25.8365 37.3519 25.8462 37.2983 25.8511 37.2447C25.9404 36.2753 26.4129 35.7054 27.2962 35.504C27.8711 35.3725 28.7073 35.1273 29.3227 34.5233C30.4464 33.4191 31.7681 32.9758 33.4065 32.6478C34.2297 32.4838 35.303 32.3458 36.3082 32.7517C37.2386 33.1268 38.0602 33.2665 38.8948 33.1966C39.5443 33.1414 40.0038 33.4532 40.2685 34.1238C40.3838 34.4128 40.5202 34.6986 40.6534 34.9747L40.7134 35.0997C41.2476 36.2168 41.8208 37.0141 42.5158 37.6068C43.4462 38.4008 44.4465 38.3878 45.195 37.5743C46.1579 36.527 46.2699 35.2572 45.4954 34.1758C44.8881 33.3282 44.388 32.5065 43.9675 31.6638C43.2985 30.3226 43.3894 29.0642 44.2386 27.9243C44.3133 27.8252 44.388 27.7262 44.4627 27.6288C44.6527 27.3803 44.8475 27.1254 45.0164 26.8607C45.2031 26.5668 45.1658 26.1625 44.9303 25.9384C44.7193 25.7371 44.3848 25.7647 44.1558 26.005C44.0145 26.1527 43.8846 26.3265 43.758 26.4954L43.6752 26.6058C43.6606 26.6253 43.6492 26.6431 43.6346 26.661C43.4933 26.6318 43.3326 26.6123 43.1507 26.6106C43.0305 26.609 42.9088 26.609 42.787 26.6106H21.9946C17.0178 26.6106 12.041 26.6106 7.06413 26.6106C7.00567 26.6106 6.9456 26.6106 6.88552 26.6106C6.82706 26.6106 6.7686 26.6106 6.71014 26.6106C6.57699 26.6106 6.45034 26.6139 6.32693 26.6269C6.29121 26.6301 6.26036 26.6366 6.22789 26.6415C5.76998 26.4125 5.45011 26.0342 5.2585 25.4886C4.91914 24.5257 4.40277 23.618 3.72566 22.7834H44.0909C44.2873 22.7834 44.4725 22.7834 44.6543 22.7753C44.9174 22.7607 45.1447 22.7201 45.3282 22.66C45.3379 22.6893 45.346 22.7169 45.3558 22.7461C45.4223 22.9474 45.5409 23.0984 45.6887 23.1715C45.8039 23.2283 45.9338 23.2365 46.0621 23.1926C46.3836 23.0838 46.5346 22.7266 46.434 22.306C46.3787 22.0755 46.317 21.8433 46.2553 21.6192C46.192 21.3837 46.1287 21.1515 46.0735 20.921C46.0605 20.8641 46.0459 20.8073 46.0313 20.7489L46.0264 20.7261C45.9225 20.3218 45.8056 19.8623 45.9793 19.4239L46.0816 19.1624C46.5752 17.9056 47.0835 16.605 48.121 15.6665C48.9021 14.9585 49.2642 14.119 49.2268 13.096C49.2122 12.6722 49.3324 12.3053 49.6052 11.9399C50.2255 11.1102 50.6866 10.472 51.099 9.86637C51.5066 9.26883 51.5732 8.62095 51.289 7.9958V7.9893ZM28.782 33.3233C28.2186 33.8656 27.535 34.0832 27.0007 34.2131C25.6351 34.5427 24.8801 35.4813 24.6885 37.0823C24.6658 37.2674 24.617 37.4915 24.4287 37.5841C24.2419 37.675 24.052 37.5792 23.888 37.4818C23.2693 37.1132 22.8796 36.5237 22.6994 35.681C22.5175 34.8399 22.2609 34.2164 21.8924 33.7179C21.3874 33.0359 20.7622 32.8004 19.9861 33.0018C19.8708 33.031 19.7555 33.07 19.6353 33.109C19.4145 33.182 19.1872 33.2583 18.9371 33.2859C18.3103 33.3574 17.9904 33.1073 17.8557 32.4481C17.8476 32.4091 17.8378 32.3718 17.8281 32.3328C17.8443 32.3328 17.8605 32.3328 17.8768 32.3328H30.1313C29.6572 32.5926 29.2026 32.9141 28.7787 33.3233H28.782ZM44.5553 34.9747L44.6088 35.0542C44.9417 35.5462 44.867 36.0837 44.3945 36.566C44.034 36.9346 43.6281 36.9167 43.1864 36.5124C42.7025 36.0675 42.3421 35.6144 42.0839 35.1241C41.7478 34.4875 41.4393 33.8299 41.1502 33.2096C40.9797 32.841 40.754 32.552 40.4715 32.3328H42.6197C42.7366 32.3328 42.8487 32.3328 42.9575 32.3247C43.037 32.4952 43.1215 32.6673 43.2173 32.8443C43.6135 33.588 44.0909 34.2927 44.5536 34.973L44.5553 34.9747ZM42.6035 27.7733H42.7285C42.7902 27.7733 42.8503 27.7733 42.9104 27.7733C42.3031 28.9131 42.1797 29.9621 42.5174 31.1669H35.1764C34.9085 31.1491 34.6373 31.1491 34.3629 31.1669H28.238C24.7859 31.1669 21.3322 31.1669 17.88 31.1669C17.8394 31.1669 17.7972 31.1669 17.7566 31.1669C17.716 31.1669 17.6754 31.1669 17.6348 31.1669C17.5553 31.1669 17.4806 31.1702 17.4059 31.1799C16.8148 30.1001 15.7984 29.5026 14.4831 29.5026H14.2477C13.6063 29.5091 12.8805 29.5139 12.1774 29.3775L12.0913 29.3613C11.0959 29.1697 10.0681 28.9716 9.22373 28.2068C9.05161 28.0509 8.87463 27.908 8.69277 27.7749H42.6035V27.7733ZM38.2729 16.5806C38.307 16.5953 38.3427 16.6034 38.3785 16.6147H32.2439C29.0337 16.6147 25.8251 16.6147 22.6149 16.6147C22.5857 16.6147 22.5581 16.6147 22.5289 16.6147V12.7875H36.5647C36.5988 12.7875 36.6329 12.7875 36.6654 12.7875C36.6832 12.8833 36.6978 12.9791 36.7092 13.0798C36.7823 13.7585 36.896 14.3463 37.0567 14.8789C37.3327 15.7915 37.7403 16.3647 38.2713 16.5806H38.2729ZM26.7247 8.20526C27.2459 8.19227 27.6746 8.34815 28.0805 8.68914C28.4621 9.01065 28.8616 9.32566 29.248 9.62931L29.2107 9.704L29.261 9.64067C29.5533 9.86962 29.8537 10.1067 30.1476 10.347C30.7208 10.8163 31.3752 10.9803 32.1481 10.8471C32.3494 10.813 32.5508 10.7741 32.7521 10.7351C32.9973 10.688 33.2685 10.636 33.5315 10.5938C34.3548 10.4623 35.1179 10.6247 35.6814 11.055C35.8876 11.2109 36.063 11.4025 36.2107 11.6217H28.2429C26.3398 11.6217 24.4352 11.6217 22.5321 11.6217V8.08673C23.9838 8.19877 25.3705 8.23774 26.7263 8.20689L26.7247 8.20526ZM44.5682 21.6111C44.4319 21.6094 44.2938 21.6094 44.1574 21.6111H20.5982C14.9589 21.6111 9.31955 21.6111 3.68183 21.6111C3.61526 21.6111 3.54704 21.6111 3.48047 21.6111C3.41389 21.6111 3.34732 21.6111 3.28237 21.6111C3.13136 21.6111 2.98686 21.6143 2.84884 21.6273C2.8391 21.6273 2.83097 21.6306 2.82123 21.6306C2.5598 21.1954 2.37145 20.7083 2.25291 20.1578C2.20744 19.9435 2.16685 19.7259 2.12625 19.5083H20.0867C21.1844 19.5083 22.1148 18.7808 22.4233 17.7822C22.4867 17.7839 22.5516 17.7839 22.6166 17.7822H45.3541C45.2031 18.1297 45.0554 18.4886 44.9092 18.8555C44.7647 19.216 44.7079 19.5814 44.7388 19.9435C44.7842 20.4826 44.8816 21.0395 45.0375 21.6468C44.8979 21.6257 44.742 21.6127 44.5699 21.6111H44.5682ZM47.5365 14.4568C46.8578 15.0608 46.3479 15.7947 45.9095 16.618C45.9014 16.618 45.8949 16.6164 45.8884 16.6164C45.8104 16.6147 45.7325 16.6147 45.6546 16.6164H39.2943C39.5427 16.553 39.809 16.4459 40.0899 16.2916C40.4796 16.0773 40.8515 15.7964 41.2103 15.5252C41.4441 15.3482 41.6844 15.1647 41.9345 14.9991C42.7448 14.4568 43.2904 13.7309 43.6005 12.7892H48.0902C48.0902 12.8557 48.0886 12.9239 48.0902 12.9921C48.1162 13.6043 47.9262 14.1125 47.5381 14.4584L47.5365 14.4568ZM50.0192 9.29319C49.8049 9.57734 49.5922 9.87287 49.386 10.1587C49.1635 10.4672 48.9118 10.8179 48.6601 11.1459C48.5432 11.2985 48.4474 11.456 48.3662 11.62H45.4581C45.0294 11.62 44.6007 11.62 44.1721 11.62C44.3052 11.5064 44.4643 11.4171 44.6478 11.3537C46.6759 10.6555 47.8775 9.29156 48.3191 7.18229C48.3581 6.99231 48.4328 6.63833 48.8128 6.60585C48.829 6.60585 48.8436 6.60423 48.8599 6.60423C49.1814 6.60423 49.347 6.89813 49.4184 7.02478C49.4915 7.15631 49.563 7.28783 49.6344 7.41936C49.7741 7.67916 49.9186 7.94546 50.0744 8.19065C50.3164 8.57223 50.2985 8.92134 50.0192 9.29319Z" fill="#525A31"></path>
    <path d="M5.3689 8.52677C4.97595 8.47318 4.61385 8.74598 4.56027 9.13893C4.50668 9.53188 4.77948 9.89398 5.17243 9.94756C5.56538 10.0011 5.92748 9.72836 5.98106 9.3354C6.03465 8.94245 5.76185 8.58035 5.3689 8.52677Z" fill="#525A31"></path>
    <path d="M7.31579 15.6015C6.92284 15.5479 6.56075 15.8207 6.50716 16.2137C6.45358 16.6066 6.72637 16.9687 7.11932 17.0223C7.51228 17.0759 7.87437 16.8031 7.92796 16.4102C7.98154 16.0172 7.70875 15.6551 7.31579 15.6015Z" fill="#525A31"></path>
    <path d="M3.1005 13.0051C3.04692 13.3981 3.31972 13.7602 3.71267 13.8138C4.10562 13.8673 4.46772 13.5945 4.5213 13.2016C4.57488 12.8086 4.30209 12.4465 3.90914 12.393C3.51618 12.3394 3.15409 12.6122 3.1005 13.0051Z" fill="#525A31"></path>
    <path d="M8.74147 6.76173C8.34851 6.70815 7.98642 6.98094 7.93283 7.37389C7.87925 7.76685 8.15204 8.12895 8.545 8.18253C8.93795 8.23611 9.30004 7.96332 9.35363 7.57037C9.40721 7.17742 9.13442 6.81532 8.74147 6.76173Z" fill="#525A31"></path>
    <path d="M8.545 11.5616C8.93795 11.6152 9.30004 11.3424 9.35363 10.9494C9.40721 10.5565 9.13442 10.1944 8.74147 10.1408C8.34851 10.0872 7.98642 10.36 7.93283 10.753C7.87925 11.1459 8.15204 11.508 8.545 11.5616Z" fill="#525A31"></path>
    <path d="M12.4161 8.70538C12.0231 8.6518 11.661 8.92459 11.6074 9.31754C11.5538 9.71049 11.8283 10.0726 12.2196 10.1262C12.6125 10.1798 12.9746 9.90697 13.0282 9.51402C13.0818 9.12107 12.809 8.75897 12.4161 8.70538Z" fill="#525A31"></path>
    <path d="M16.6508 13.7228C16.5973 14.1158 16.87 14.4779 17.263 14.5315C17.6559 14.585 18.0181 14.3122 18.0716 13.9193C18.1252 13.5263 17.8524 13.1642 17.4595 13.1107C17.0665 13.0571 16.7044 13.3299 16.6508 13.7228Z" fill="#525A31"></path>
    <path d="M19.2862 12.1299C19.6792 12.1835 20.0413 11.9107 20.0949 11.5177C20.1484 11.1248 19.8756 10.7627 19.4827 10.7091C19.0897 10.6555 18.7276 10.9283 18.6741 11.3213C18.6205 11.7142 18.8949 12.0763 19.2862 12.1299Z" fill="#525A31"></path>
    <path d="M9.79043 14.1288C9.73685 14.5217 10.0096 14.8838 10.4026 14.9374C10.7955 14.991 11.1576 14.7182 11.2112 14.3252C11.2648 13.9323 10.9904 13.5702 10.5991 13.5166C10.2077 13.463 9.84402 13.7358 9.79043 14.1288Z" fill="#525A31"></path>
    <path d="M13.5559 13.0977C13.9489 13.1513 14.311 12.8785 14.3646 12.4855C14.4182 12.0926 14.1437 11.7305 13.7524 11.6769C13.3595 11.6233 12.9974 11.8961 12.9438 12.289C12.8902 12.682 13.163 13.0441 13.5559 13.0977Z" fill="#525A31"></path>
    <path d="M16.2173 8.83853C16.1637 9.23148 16.4365 9.59358 16.8295 9.64717C17.2224 9.70075 17.5845 9.42796 17.6381 9.03501C17.6917 8.64206 17.4189 8.27996 17.0259 8.22637C16.633 8.17279 16.2709 8.44558 16.2173 8.83853Z" fill="#525A31"></path>
    <path d="M14.5172 17.0239C14.9102 17.0775 15.2723 16.8047 15.3258 16.4118C15.3794 16.0188 15.1066 15.6567 14.7137 15.6031C14.3207 15.5496 13.9586 15.8223 13.905 16.2153C13.8515 16.6082 14.1243 16.9704 14.5172 17.0239Z" fill="#525A31"></path>
    <path d="M19.2862 17.3795C19.6792 17.4331 20.0413 17.1603 20.0949 16.7674C20.1484 16.3744 19.8756 16.0123 19.4827 15.9587C19.0897 15.9052 18.7276 16.178 18.6741 16.5709C18.6205 16.9639 18.8949 17.326 19.2862 17.3795Z" fill="#525A31"></path>
  </symbol>
  <symbol xmlns="http://www.w3.org/2000/svg" fill="none" viewBox="0 0 17 16" id="red_close">
    <circle cx="8" cy="8" r="8" transform="translate(0.5)" fill="#DB3D24"></circle>
    <path d="M0 0L7 7M7 0L0 7" transform="translate(5 5)" stroke="white" stroke-width="1.5"></path>
  </symbol>
  <symbol xmlns="http://www.w3.org/2000/svg" fill="none" viewBox="0 0 33 36" id="red_exclaim">
    <rect width="32" height="32" rx="3" transform="translate(0.5 2)" fill="#DB3D24"></rect>
    <path d="M5.5957 21.7158H2.53418L2.19727 6.67188H5.94727L5.5957 21.7158ZM2.09473 26.3154C2.09473 25.7588 2.27539 25.2998 2.63672 24.9385C2.99805 24.5674 3.49121 24.3818 4.11621 24.3818C4.74121 24.3818 5.23438 24.5674 5.5957 24.9385C5.95703 25.2998 6.1377 25.7588 6.1377 26.3154C6.1377 26.8525 5.96191 27.3018 5.61035 27.6631C5.25879 28.0244 4.76074 28.2051 4.11621 28.2051C3.47168 28.2051 2.97363 28.0244 2.62207 27.6631C2.27051 27.3018 2.09473 26.8525 2.09473 26.3154Z" transform="translate(12)" fill="white"></path>
  </symbol>
</svg>